<svg width="414" height="313" viewBox="0 0 414 313" fill="none" xmlns="http://www.w3.org/2000/svg">
<rect x="86.9863" y="38.6968" width="105.252" height="28.9243" rx="3" fill="white"/>
<rect x="218.752" y="0.93457" width="49.0105" height="50.6175" rx="3" fill="white"/>
<rect x="229.197" y="90.1177" width="93.2004" height="49.814" rx="2" fill="white"/>
<rect x="99.0391" y="106.99" width="49.0105" height="49.814" fill="white"/>
<rect x="174.562" y="160.821" width="48.2071" height="28.1208" rx="1" fill="white"/>
<g clip-path="url(#clip0)">
<path d="M190.659 67.4387H88.7831C88.2829 67.4381 87.8034 67.2392 87.4497 66.8856C87.096 66.532 86.8971 66.0525 86.8965 65.5525V40.2866C86.8971 39.7865 87.096 39.3071 87.4497 38.9535C87.8034 38.5999 88.2829 38.401 88.7831 38.4004H190.659C191.159 38.401 191.638 38.5999 191.992 38.9535C192.346 39.3071 192.545 39.7865 192.545 40.2866V65.5525C192.545 66.0525 192.346 66.532 191.992 66.8856C191.638 67.2392 191.159 67.4381 190.659 67.4387ZM88.7831 39.1549C88.483 39.1552 88.1952 39.2745 87.983 39.4867C87.7708 39.6989 87.6514 39.9865 87.6511 40.2866V65.5525C87.6514 65.8525 87.7708 66.1402 87.983 66.3524C88.1952 66.5645 88.483 66.6839 88.7831 66.6842H190.659C190.959 66.6839 191.246 66.5645 191.459 66.3524C191.671 66.1402 191.79 65.8525 191.791 65.5525V40.2866C191.79 39.9865 191.671 39.6989 191.459 39.4867C191.246 39.2745 190.959 39.1552 190.659 39.1549L88.7831 39.1549Z" fill="#3F3D56"/>
<path d="M104.613 59.6334C108.857 59.6334 112.298 56.1934 112.298 51.95C112.298 47.7066 108.857 44.2666 104.613 44.2666C100.368 44.2666 96.9277 47.7066 96.9277 51.95C96.9277 56.1934 100.368 59.6334 104.613 59.6334Z" fill="#FFDA63"/>
<path d="M122.361 46.8276C122.021 46.8276 121.695 46.9626 121.455 47.2027C121.215 47.4429 121.08 47.7686 121.08 48.1082C121.08 48.4478 121.215 48.7735 121.455 49.0137C121.695 49.2538 122.021 49.3888 122.361 49.3888H182.743C183.082 49.3888 183.408 49.2538 183.648 49.0137C183.888 48.7735 184.023 48.4478 184.023 48.1082C184.023 47.7686 183.888 47.4429 183.648 47.2027C183.408 46.9626 183.082 46.8276 182.743 46.8276H122.361Z" fill="#E6E6E6"/>
<path d="M122.361 54.5112C122.021 54.5112 121.695 54.6461 121.455 54.8863C121.215 55.1265 121.08 55.4522 121.08 55.7918C121.08 56.1314 121.215 56.4571 121.455 56.6973C121.695 56.9374 122.021 57.0724 122.361 57.0724H148.343C148.512 57.0727 148.678 57.0398 148.834 56.9755C148.99 56.9113 149.131 56.8171 149.25 56.6981C149.37 56.5792 149.464 56.4379 149.529 56.2824C149.593 56.1269 149.626 55.9602 149.626 55.7918C149.626 55.6234 149.593 55.4567 149.529 55.3012C149.464 55.1457 149.37 55.0044 149.25 54.8855C149.131 54.7665 148.99 54.6723 148.834 54.608C148.678 54.5438 148.512 54.5109 148.343 54.5112H122.361Z" fill="#E6E6E6"/>
<path d="M146.43 157.5H101.152C100.652 157.499 100.173 157.3 99.8188 156.947C99.4652 156.593 99.2662 156.114 99.2656 155.614V108.468C99.2662 107.968 99.4652 107.488 99.8188 107.135C100.173 106.781 100.652 106.582 101.152 106.582H146.43C146.931 106.582 147.41 106.781 147.764 107.135C148.117 107.488 148.316 107.968 148.317 108.468V155.614C148.316 156.114 148.117 156.593 147.764 156.947C147.41 157.3 146.931 157.499 146.43 157.5ZM101.152 107.336C100.852 107.336 100.564 107.456 100.352 107.668C100.14 107.88 100.021 108.168 100.02 108.468V155.614C100.021 155.914 100.14 156.201 100.352 156.413C100.564 156.626 100.852 156.745 101.152 156.745H146.43C146.73 156.745 147.018 156.626 147.23 156.413C147.443 156.201 147.562 155.914 147.562 155.614V108.468C147.562 108.168 147.443 107.88 147.23 107.668C147.018 107.456 146.73 107.336 146.43 107.336H101.152Z" fill="#3F3D56"/>
<path d="M110.8 116.304C110.461 116.304 110.135 116.439 109.895 116.679C109.654 116.919 109.52 117.245 109.52 117.584C109.52 117.924 109.654 118.25 109.895 118.49C110.135 118.73 110.461 118.865 110.8 118.865H136.783C137.122 118.865 137.448 118.73 137.688 118.49C137.929 118.25 138.064 117.924 138.064 117.584C138.064 117.245 137.929 116.919 137.688 116.679C137.448 116.439 137.122 116.304 136.783 116.304H110.8Z" fill="#E6E6E6"/>
<path d="M110.801 123.849C110.632 123.848 110.466 123.881 110.31 123.945C110.154 124.01 110.013 124.104 109.894 124.223C109.774 124.342 109.68 124.483 109.615 124.639C109.551 124.794 109.518 124.961 109.518 125.129C109.518 125.298 109.551 125.464 109.615 125.62C109.68 125.775 109.774 125.917 109.894 126.036C110.013 126.154 110.154 126.249 110.31 126.313C110.466 126.377 110.632 126.41 110.801 126.41H136.783C137.123 126.41 137.449 126.275 137.689 126.035C137.929 125.795 138.064 125.469 138.064 125.129C138.064 124.79 137.929 124.464 137.689 124.224C137.449 123.984 137.123 123.849 136.783 123.849H110.801Z" fill="#E6E6E6"/>
<path d="M123.791 147.777C122.196 147.777 120.637 147.305 119.312 146.419C117.986 145.533 116.952 144.274 116.342 142.801C115.732 141.329 115.572 139.708 115.883 138.144C116.195 136.581 116.962 135.144 118.09 134.017C119.217 132.89 120.654 132.122 122.218 131.811C123.782 131.5 125.403 131.66 126.876 132.27C128.349 132.88 129.608 133.913 130.494 135.239C131.38 136.564 131.853 138.123 131.853 139.717C131.85 141.854 131 143.903 129.489 145.414C127.977 146.925 125.928 147.775 123.791 147.777Z" fill="#FFDA63"/>
<path d="M220.603 0.93457H265.882C266.382 0.935158 266.861 1.13407 267.215 1.48767C267.569 1.84128 267.768 2.3207 267.768 2.82077V49.9666C267.768 50.4667 267.569 50.9461 267.215 51.2997C266.861 51.6533 266.382 51.8522 265.882 51.8528H220.603C220.103 51.8522 219.624 51.6533 219.27 51.2997C218.916 50.9461 218.717 50.4667 218.717 49.9666V2.82077C218.717 2.3207 218.916 1.84128 219.27 1.48767C219.624 1.13407 220.103 0.935158 220.603 0.93457ZM265.882 51.0983C266.182 51.098 266.469 50.9786 266.682 50.7665C266.894 50.5543 267.013 50.2666 267.013 49.9666V2.82077C267.013 2.52072 266.894 2.23305 266.682 2.02089C266.469 1.80872 266.182 1.68938 265.882 1.68905H220.603C220.303 1.68938 220.016 1.80872 219.803 2.02089C219.591 2.23305 219.472 2.52072 219.471 2.82077V49.9666C219.472 50.2666 219.591 50.5543 219.803 50.7665C220.016 50.9786 220.303 51.098 220.603 51.0983H265.882Z" fill="#3F3D56"/>
<path d="M256.234 42.1305C256.574 42.1305 256.899 41.9955 257.14 41.7554C257.38 41.5152 257.515 41.1895 257.515 40.8499C257.515 40.5103 257.38 40.1846 257.14 39.9444C256.899 39.7043 256.574 39.5693 256.234 39.5693H230.252C229.912 39.5693 229.586 39.7043 229.346 39.9444C229.106 40.1846 228.971 40.5103 228.971 40.8499C228.971 41.1895 229.106 41.5152 229.346 41.7554C229.586 41.9955 229.912 42.1305 230.252 42.1305H256.234Z" fill="#E6E6E6"/>
<path d="M256.234 34.5855C256.574 34.5855 256.899 34.4506 257.14 34.2105C257.38 33.9703 257.515 33.6446 257.515 33.305C257.515 32.9654 257.38 32.6396 257.14 32.3995C256.899 32.1593 256.574 32.0244 256.234 32.0244H230.252C229.912 32.0244 229.586 32.1593 229.346 32.3995C229.106 32.6396 228.971 32.9654 228.971 33.305C228.971 33.6446 229.106 33.9703 229.346 34.2105C229.586 34.4506 229.912 34.5855 230.252 34.5855H256.234Z" fill="#E6E6E6"/>
<path d="M243.242 10.6567C244.836 10.6567 246.395 11.1295 247.721 12.0152C249.047 12.9009 250.08 14.1598 250.69 15.6327C251.301 17.1055 251.46 18.7262 251.149 20.2898C250.838 21.8534 250.07 23.2897 248.943 24.417C247.815 25.5443 246.379 26.312 244.815 26.623C243.251 26.934 241.63 26.7744 240.157 26.1643C238.683 25.5542 237.424 24.5211 236.538 23.1955C235.653 21.87 235.18 20.3115 235.18 18.7173C235.182 16.5803 236.032 14.5314 237.544 13.0203C239.055 11.5092 241.104 10.6592 243.242 10.6567Z" fill="#FFDA63"/>
<path d="M87.4784 98.4719C95.4907 92.2676 104.852 88.0368 114.803 86.1219C124.834 84.2109 135.178 84.7423 144.96 87.6712C149.877 89.135 154.602 91.1818 159.033 93.7677C163.548 96.4065 167.627 99.6549 171.553 103.094C175.529 106.578 179.374 110.218 183.525 113.498C195.376 122.969 210.088 128.143 225.26 128.176C226.513 128.178 227.765 128.144 229.017 128.073C229.696 128.035 229.7 126.975 229.017 127.013C213.552 127.864 198.281 123.25 185.875 113.979C181.573 110.762 177.645 107.085 173.634 103.521C169.746 100.066 165.754 96.7049 161.343 93.9291C150.553 87.133 138.001 83.6638 125.252 83.9544C112.503 84.2449 100.122 88.2823 89.6531 95.5628C88.6577 96.2548 87.6854 96.9779 86.7287 97.7224C86.1909 98.1409 86.946 98.8862 87.4784 98.4719V98.4719Z" fill="#3F3D56"/>
<path d="M86.9151 103.595C89.958 103.595 92.4249 101.129 92.4249 98.0868C92.4249 95.0444 89.958 92.5781 86.9151 92.5781C83.8721 92.5781 81.4053 95.0444 81.4053 98.0868C81.4053 101.129 83.8721 103.595 86.9151 103.595Z" fill="#3F3D56"/>
<path d="M291.891 176.736C294.934 176.736 297.4 174.27 297.4 171.227C297.4 168.185 294.934 165.719 291.891 165.719C288.848 165.719 286.381 168.185 286.381 171.227C286.381 174.27 288.848 176.736 291.891 176.736Z" fill="#3F3D56"/>
<path d="M320.755 139.847H230.851C230.351 139.847 229.872 139.648 229.518 139.294C229.164 138.94 228.965 138.461 228.965 137.961V91.1924C228.965 90.6923 229.164 90.2129 229.518 89.8593C229.872 89.5057 230.351 89.3067 230.851 89.3062H320.755C321.255 89.3067 321.734 89.5057 322.088 89.8593C322.442 90.2129 322.641 90.6923 322.641 91.1924V137.961C322.641 138.461 322.442 138.94 322.088 139.294C321.734 139.648 321.255 139.847 320.755 139.847ZM230.851 90.0607C230.551 90.061 230.264 90.1803 230.051 90.3925C229.839 90.6047 229.72 90.8923 229.719 91.1924V137.961C229.72 138.261 229.839 138.549 230.051 138.761C230.264 138.973 230.551 139.092 230.851 139.093H320.755C321.055 139.092 321.342 138.973 321.555 138.761C321.767 138.549 321.886 138.261 321.887 137.961V91.1924C321.886 90.8923 321.767 90.6047 321.555 90.3925C321.342 90.1803 321.055 90.061 320.755 90.0607H230.851Z" fill="#3F3D56"/>
<path d="M245.927 113.557C250.171 113.557 253.612 110.117 253.612 105.874C253.612 101.63 250.171 98.1904 245.927 98.1904C241.683 98.1904 238.242 101.63 238.242 105.874C238.242 110.117 241.683 113.557 245.927 113.557Z" fill="#FFDA63"/>
<path d="M263.676 100.751C263.507 100.751 263.341 100.784 263.185 100.848C263.029 100.912 262.888 101.007 262.769 101.126C262.649 101.245 262.555 101.386 262.49 101.541C262.426 101.697 262.393 101.864 262.393 102.032C262.393 102.2 262.426 102.367 262.49 102.523C262.555 102.678 262.649 102.819 262.769 102.938C262.888 103.057 263.029 103.152 263.185 103.216C263.341 103.28 263.507 103.313 263.676 103.313H312.085C312.425 103.313 312.75 103.178 312.991 102.938C313.231 102.697 313.366 102.372 313.366 102.032C313.366 101.692 313.231 101.367 312.991 101.127C312.75 100.886 312.425 100.751 312.085 100.751H263.676Z" fill="#E6E6E6"/>
<path d="M263.676 108.435C263.507 108.435 263.341 108.468 263.185 108.532C263.029 108.596 262.888 108.69 262.769 108.809C262.649 108.928 262.555 109.07 262.49 109.225C262.426 109.381 262.393 109.547 262.393 109.716C262.393 109.884 262.426 110.051 262.49 110.206C262.555 110.362 262.649 110.503 262.769 110.622C262.888 110.741 263.029 110.835 263.185 110.899C263.341 110.964 263.507 110.996 263.676 110.996H289.658C289.998 110.996 290.324 110.861 290.564 110.621C290.804 110.381 290.939 110.055 290.939 109.716C290.939 109.376 290.804 109.05 290.564 108.81C290.324 108.57 289.998 108.435 289.658 108.435H263.676Z" fill="#E6E6E6"/>
<path d="M240.033 120.718C239.058 120.718 238.266 121.293 238.266 121.999C238.266 122.705 239.058 123.279 240.033 123.279H311.368C312.343 123.279 313.136 122.705 313.136 121.999C313.136 121.293 312.343 120.718 311.368 120.718H240.033Z" fill="#E6E6E6"/>
<path d="M240.033 128.402C239.058 128.402 238.266 128.976 238.266 129.682C238.266 130.388 239.058 130.963 240.033 130.963H311.368C312.343 130.963 313.136 130.388 313.136 129.682C313.136 128.976 312.343 128.402 311.368 128.402H240.033Z" fill="#E6E6E6"/>
<path d="M223.625 176.356C228.697 174.156 234.36 176.074 239.14 178.101C241.603 179.146 244.038 180.26 246.586 181.085C248.73 181.777 250.925 182.297 253.151 182.64C257.618 183.324 262.162 183.352 266.637 182.723C271.135 182.096 275.519 180.821 279.652 178.939C283.762 177.077 287.561 174.593 290.915 171.576C291.342 171.191 291.761 170.797 292.171 170.394C292.659 169.915 291.909 169.166 291.421 169.644C288.191 172.792 284.482 175.41 280.433 177.399C276.401 179.382 272.1 180.763 267.667 181.5C263.219 182.249 258.685 182.328 254.214 181.732C251.984 181.43 249.781 180.952 247.627 180.3C245.153 179.496 242.726 178.553 240.357 177.477C235.532 175.405 230.171 173.377 224.869 174.806C224.261 174.974 223.667 175.186 223.09 175.441C222.466 175.711 223.005 176.625 223.625 176.356V176.356Z" fill="#3F3D56"/>
<path d="M221.666 189.356H179.191L189.187 172.046C189.366 171.736 189.624 171.479 189.934 171.299C190.245 171.12 190.597 171.026 190.955 171.026C191.313 171.026 191.665 171.12 191.976 171.299C192.286 171.479 192.544 171.736 192.723 172.046L196.993 179.441L204.253 166.868C204.478 166.479 204.8 166.157 205.189 165.933C205.577 165.708 206.018 165.59 206.466 165.59C206.915 165.59 207.356 165.708 207.744 165.933C208.133 166.157 208.455 166.479 208.68 166.868L221.666 189.356Z" fill="#FFDA63"/>
<path d="M221.706 189.352H176.428C175.927 189.351 175.448 189.152 175.094 188.799C174.741 188.445 174.542 187.966 174.541 187.466V162.2C174.542 161.7 174.741 161.22 175.094 160.867C175.448 160.513 175.927 160.314 176.428 160.313H221.706C222.206 160.314 222.685 160.513 223.039 160.867C223.393 161.22 223.592 161.7 223.592 162.2V187.466C223.592 187.966 223.393 188.445 223.039 188.799C222.685 189.152 222.206 189.351 221.706 189.352ZM176.428 161.068C176.127 161.068 175.84 161.188 175.628 161.4C175.415 161.612 175.296 161.9 175.296 162.2V187.466C175.296 187.766 175.415 188.053 175.628 188.265C175.84 188.478 176.127 188.597 176.428 188.597H221.706C222.006 188.597 222.294 188.478 222.506 188.265C222.718 188.053 222.837 187.766 222.838 187.466V162.2C222.837 161.9 222.718 161.612 222.506 161.4C222.294 161.188 222.006 161.068 221.706 161.068H176.428Z" fill="#3F3D56"/>
<path d="M310.512 167.116L302.441 171.213C299.561 172.675 296.781 172.425 295.716 169.376C295.463 168.65 295.369 167.878 295.442 167.113C295.515 166.348 295.752 165.607 296.137 164.942C296.523 164.277 297.047 163.703 297.675 163.26C298.303 162.816 299.02 162.514 299.775 162.373L307.446 160.941L340.297 150.044L360.197 135.936L367.492 147.556L344.498 159.961L310.512 167.116Z" fill="#FFB8B8"/>
<path d="M348.187 303.123L342.012 302.094L342.698 290.433H349.216L348.187 303.123Z" fill="#FFB8B8"/>
<path d="M408.118 291.733L402.142 293.597L397.498 282.878L403.316 279.941L408.118 291.733Z" fill="#FFB8B8"/>
<path d="M404.789 281.515L397.242 284.601L361.222 237.27L349.902 292.833L342.355 291.461C337.513 243.559 333.565 194.699 338.409 171.59L366.368 170.39L379.061 210.861L385.236 238.299L404.789 281.515Z" fill="#2F2E41"/>
<path d="M347.847 312.553C346.718 312.795 345.541 312.67 344.488 312.196L340.82 310.546C337.745 310.388 335.65 311.001 333.938 308.766C333.455 308.128 333.151 307.371 333.059 306.576C332.967 305.78 333.089 304.975 333.414 304.243C333.735 303.508 334.247 302.872 334.895 302.4C335.544 301.928 336.306 301.638 337.104 301.558L342.143 298.384L342.407 300.763C344.71 302.068 347.444 301.504 350.34 300.235L351.922 305.768C352.126 306.482 352.181 307.229 352.084 307.965C351.987 308.701 351.739 309.409 351.357 310.045C350.975 310.681 350.467 311.232 349.863 311.663C349.259 312.095 348.573 312.398 347.847 312.553Z" fill="#2F2E41"/>
<path d="M410.562 301.203C409.573 301.798 408.42 302.062 407.27 301.956L403.264 301.586C400.304 302.435 398.522 303.694 396.177 302.137C395.512 301.69 394.98 301.073 394.634 300.35C394.289 299.628 394.143 298.826 394.212 298.029C394.277 297.229 394.555 296.462 395.015 295.805C395.475 295.148 396.102 294.626 396.831 294.291L400.565 289.653L401.588 291.818C404.189 292.304 406.592 290.884 408.92 288.742L412.212 293.462C412.637 294.071 412.932 294.76 413.079 295.488C413.226 296.215 413.222 296.965 413.068 297.691C412.913 298.416 412.611 299.103 412.18 299.707C411.749 300.311 411.198 300.82 410.562 301.203Z" fill="#2F2E41"/>
<path d="M356.076 121.687C362.897 121.687 368.426 116.159 368.426 109.339C368.426 102.52 362.897 96.9922 356.076 96.9922C349.256 96.9922 343.727 102.52 343.727 109.339C343.727 116.159 349.256 121.687 356.076 121.687Z" fill="#FFB8B8"/>
<path d="M371.172 135.406L355.048 131.976L352.99 118.6L364.311 116.199L371.172 135.406Z" fill="#FFB8B8"/>
<path d="M366.712 172.105H337.896L344.392 155.801C343.92 150.191 346.298 146.065 349.702 142.472L354.02 131.633C360.997 127.042 366.257 127.385 371.858 133.348C378.499 142.749 373.902 156.881 366.712 172.105Z" fill="#FFDA63"/>
<path d="M353.677 206.745L352.857 215.758C352.565 218.975 350.875 221.196 347.726 220.477C346.976 220.305 346.273 219.974 345.663 219.506C345.053 219.037 344.552 218.443 344.194 217.763C343.835 217.083 343.628 216.334 343.586 215.566C343.544 214.799 343.669 214.031 343.951 213.316L346.816 206.06L355.049 172.448L353.677 148.096H367.399L365.683 174.163L353.677 206.745Z" fill="#FFB8B8"/>
<path d="M368.427 148.782H352.646L353.753 138.49C353.825 136.71 354.561 135.021 355.815 133.756C357.069 132.49 358.752 131.739 360.531 131.651C361.474 131.603 362.417 131.744 363.306 132.063C364.194 132.383 365.011 132.876 365.707 133.513C366.404 134.15 366.968 134.919 367.365 135.775C367.763 136.631 367.986 137.558 368.023 138.501L368.427 148.782Z" fill="#FFDA63"/>
<path d="M371.363 96.6438C373.926 96.6438 376.005 94.566 376.005 92.0028C376.005 89.4397 373.926 87.3618 371.363 87.3618C368.799 87.3618 366.721 89.4397 366.721 92.0028C366.721 94.566 368.799 96.6438 371.363 96.6438Z" fill="#2F2E41"/>
<path d="M366.578 90.8666C366.654 89.6891 367.177 88.585 368.039 87.7791C368.901 86.9732 370.038 86.5261 371.218 86.529C371.122 86.5168 371.027 86.502 370.929 86.4957C369.701 86.4175 368.492 86.8301 367.568 87.6428C366.644 88.4554 366.081 89.6017 366.002 90.8296C365.923 92.0574 366.335 93.2664 367.147 94.1907C367.959 95.115 369.106 95.6789 370.334 95.7586C370.431 95.7649 370.527 95.7624 370.624 95.7626C369.453 95.6143 368.383 95.0254 367.631 94.1157C366.88 93.2061 366.503 92.0442 366.578 90.8666Z" fill="#2F2E41"/>
<path d="M366.553 92.8484C362.413 89.4149 350.539 93.7788 349.772 96.0872C344.174 96.85 339.936 100.116 339.936 105.922V105.922C343.264 107.285 347.049 107.117 351.141 105.922C357.664 111.237 358.111 117.918 354.144 125.592L359.025 125.689L365.074 116.85L365.363 125.816L376.55 125.592V112.742C376.587 108.47 375.603 104.251 373.681 100.435C371.938 97.0484 369.233 95.0712 366.553 92.8484Z" fill="#2F2E41"/>
<path d="M356.136 115.551C357.362 115.551 358.356 114.159 358.356 112.443C358.356 110.728 357.362 109.336 356.136 109.336C354.91 109.336 353.916 110.728 353.916 112.443C353.916 114.159 354.91 115.551 356.136 115.551Z" fill="#FFB8B8"/>
<path d="M76.835 116.386C76.835 116.386 78.1712 93.2627 85.1081 98.517C92.045 103.771 82.0787 118.531 82.0787 118.531L76.835 116.386Z" fill="#FFB9B9"/>
<path d="M51.0263 184.977C51.0263 184.977 66.4356 202.272 57.8143 203.461C49.1931 204.65 45.8018 187.167 45.8018 187.167L51.0263 184.977Z" fill="#FFB9B9"/>
<path d="M30.9186 103.108C32.8526 103.617 34.5932 104.686 35.9217 106.18C37.2501 107.675 38.1073 109.529 38.3855 111.509L43.2871 146.389L50.1584 174.212C50.1584 174.212 53.5941 177.304 52.2198 179.021C50.8456 180.739 53.9377 187.952 53.9377 187.952L45.3485 190.7C45.3485 190.7 44.3178 183.487 42.5999 183.143C41.0902 182.841 24.1904 137.705 20.1168 126.77C19.5551 125.263 19.2373 124.405 19.2373 124.405C19.2373 124.405 19.9245 101.391 30.9186 103.108Z" fill="#575A89"/>
<path d="M32.4879 285.005L37.7636 294.352C41.8491 303.073 38.2186 304.657 28.2014 300.334L25.918 289.297L32.4879 285.005Z" fill="#FFB9B9"/>
<path d="M35.1493 297.428C35.1493 297.428 37.6537 293.352 38.5596 294.034C39.4654 294.716 43.2016 297.673 43.2016 297.673L48.0683 302.334C48.0683 302.334 64.5104 304.072 54.0627 309.831C43.615 315.591 37.8412 310.815 37.8412 310.815C37.8412 310.815 23.2082 311.576 23.4442 307.494C23.6803 303.413 28.3995 296.955 28.3995 296.955C28.3995 296.955 34.3474 300.942 35.1493 297.428Z" fill="#2F2E41"/>
<path d="M9.07617 179.347L14.0222 239.181C14.0222 239.181 14.187 274.95 19.4628 281.873C24.7385 288.796 24.9033 292.257 24.9033 292.257L35.7845 286.653C35.7845 286.653 30.1791 277.315 31.3331 275.885C32.0445 274.978 32.5507 273.928 32.8169 272.807L29.8493 235.885L35.4548 171.6L9.07617 179.347Z" fill="#2F2E41"/>
<path d="M22.595 285.005L17.9788 297.203L7.50977 292.827L13.0329 283.687L22.595 285.005Z" fill="#FFB9B9"/>
<path d="M14.8944 293.095C14.8944 293.095 18.8208 290.641 19.3116 291.622C19.8024 292.604 21.7656 296.775 21.7656 296.775L23.9742 302.909C23.9742 302.909 37.4713 311.496 25.9374 311.987C14.4036 312.477 11.4587 305.853 11.4587 305.853C11.4587 305.853 -1.54754 300.21 0.41569 296.775C2.37892 293.34 9.25015 289.777 9.25015 289.777C9.25015 289.777 12.6858 295.793 14.8944 293.095Z" fill="#2F2E41"/>
<path d="M50.9522 179.512L53.5901 234.566C53.5901 234.566 29.5196 284.346 26.8817 285.665C26.0957 286.07 25.399 286.629 24.8326 287.309C24.2663 287.988 23.8419 288.774 23.5844 289.621L9.07617 285.994L15.6708 275.445L30.1791 240.171C30.1791 240.171 32.4872 239.182 33.1467 235.885C33.8062 232.588 35.1251 232.588 31.8277 231.929C28.5304 231.27 28.5304 227.973 28.5304 227.973L17.6492 177.864L50.9522 179.512Z" fill="#2F2E41"/>
<path d="M52.1009 82.0651C53.2677 74.8764 48.3848 68.103 41.1946 66.9365C34.0044 65.7699 27.2297 70.6518 26.0629 77.8406C24.8961 85.0293 29.779 91.8026 36.9692 92.9692C44.1594 94.1358 50.9341 89.2538 52.1009 82.0651Z" fill="#FFB9B9"/>
<path d="M27.3767 80.7769C27.3767 80.7769 26.3875 97.5898 25.0686 99.2382C23.7497 100.886 38.9174 100.557 38.9174 100.557C38.9174 100.557 37.9282 86.3812 38.9174 85.0625C39.9065 83.7439 27.3767 80.7769 27.3767 80.7769Z" fill="#FFB9B9"/>
<path d="M51.9403 183.139C51.9403 183.139 14.6804 179.843 7.75781 183.139C7.75781 183.139 10.3062 173.687 9.64775 172.699C9.16885 171.976 10.4901 145.053 10.0753 129.521C9.84016 120.758 7.81767 112.199 13.697 105.693C15.6981 103.482 17.9301 101.627 20.2861 100.721C20.2861 100.721 19.6276 94.4578 22.9243 94.1286C22.9243 94.1286 35.4569 92.8076 40.0705 96.7663C41.5457 98.0232 42.4736 101.854 42.5719 105.154C40.2886 116.38 41.0968 128.837 43.1919 141.761C43.3202 142.582 43.4613 143.407 43.6024 144.232C45.8258 157.048 49.1867 170.262 51.9403 183.139Z" fill="#124780"/>
<path d="M32.1923 83.8384C33.3077 83.7719 34.3969 84.1488 35.5046 84.2958C39.4675 84.8218 43.5903 81.9467 44.4653 78.0466C44.5354 77.5273 44.6903 77.0229 44.9236 76.5537C45.5335 75.5581 46.9226 75.3682 48.0676 75.5972C49.2127 75.8261 50.2981 76.3619 51.4643 76.4231C53.2649 76.5176 54.9935 75.4093 55.953 73.8831C56.8599 72.3087 57.2455 70.4878 57.0548 68.681L56.1916 69.5868C55.8409 68.8449 55.7054 68.0195 55.8008 67.2044C55.3433 67.0827 54.8623 67.0803 54.4037 67.1976C53.9452 67.3149 53.5244 67.548 53.1817 67.8745C52.4206 67.9555 52.995 66.463 52.4296 65.9472C52.1546 65.7783 51.8268 65.717 51.5093 65.7751C49.8901 65.7907 48.5803 64.5525 47.3043 63.5557C45.0936 61.8325 42.5083 60.6535 39.7575 60.114C37.9292 59.7575 35.9849 59.7002 34.251 60.3809C32.8512 61.0091 31.588 61.9051 30.5323 63.0182C27.8176 65.6281 25.4138 68.6945 24.2844 72.2865C23.3663 75.2287 23.3403 78.3768 24.2097 81.3337C24.6647 82.8693 26.0362 88.1284 28.044 88.2509C30.5668 88.4048 29.0521 84.0257 32.1923 83.8384Z" fill="#2F2E41"/>
<path d="M37.6511 104.727L42.3765 105.233C42.3765 105.233 47.015 114.23 46.6781 116.107C46.3413 117.983 45.6077 116.844 47.6954 119.847C49.7832 122.849 55.7074 130.61 56.441 131.75C57.1746 132.889 77.1741 117.633 75.9307 113.062C75.9307 113.062 82.2471 117.592 84.9532 118.195C84.9532 118.195 64.3422 145.221 61.4699 148.68C58.5977 152.138 56.2861 151.428 52.3389 149.377C48.3917 147.327 28.4229 126.872 28.4229 126.872L37.6511 104.727Z" fill="#124780"/>
<path opacity="0.1" d="M43.6033 144.232L27.1797 127.812L31.3358 126.457L43.1928 141.761C43.3211 142.582 43.4622 143.407 43.6033 144.232Z" fill="black"/>
</g>
<defs>
<clipPath id="clip0">
<rect x="0.213867" y="0.93457" width="412.974" height="311.739" fill="white"/>
</clipPath>
</defs>
</svg>
