<svg width="196" height="145" viewBox="0 0 196 145" fill="none" xmlns="http://www.w3.org/2000/svg">
<g clip-path="url(#clip0)">
<path d="M128.704 141.952C126.011 141.29 122.734 138.536 123.435 134.751C123.783 132.874 125.119 131.659 126.504 130.873C128.42 129.786 130.601 129.377 132.704 129.273C135.129 129.154 137.552 129.455 139.959 129.773C142.335 130.087 144.711 130.369 147.098 130.54C151.801 130.877 156.519 130.884 161.223 130.559C165.835 130.244 170.424 129.609 174.964 128.657C177.218 128.184 179.457 127.628 181.684 126.991C183.778 126.431 185.839 125.73 187.855 124.892C190.502 123.735 194.806 121.485 194.455 117.316C194.269 115.106 192.839 113.341 191.397 112.111C189.653 110.625 187.635 109.646 185.659 108.696C176.465 104.277 167.254 99.9107 158.052 95.5183C155.904 94.4931 153.742 93.4955 151.658 92.2941C149.706 91.1694 147.764 89.8629 146.193 88.0564C144.822 86.4785 143.596 84.3603 143.639 81.9925C143.675 80.0288 144.657 78.3624 145.859 77.117C148.836 74.0337 153.047 72.7835 156.854 72.1287C161.582 71.3151 166.379 71.3193 171.111 70.5337C174.932 69.8994 179.014 68.6749 182.122 65.8053C183.313 64.7051 184.364 63.289 184.806 61.537C185.202 59.8318 185.005 58.0245 184.254 56.472C183.412 54.642 182.069 53.1843 180.658 51.9906C178.988 50.6097 177.152 49.4933 175.203 48.674C171.007 46.8537 166.594 45.906 162.295 44.5092C160.187 43.8241 158.057 43.0729 156.1 41.8962C154.441 40.8993 152.634 39.5556 151.712 37.5574C149.808 33.4345 154.35 30.9773 156.923 30.0466C158.686 29.4391 160.486 28.9701 162.309 28.6432C162.697 28.5673 162.533 27.8623 162.147 27.9378C160.229 28.2768 158.338 28.7794 156.49 29.441C154.939 30.0279 153.337 30.7992 152.118 32.1264C151.095 33.241 150.458 34.8249 150.731 36.4968C151.054 38.475 152.457 39.9993 153.775 41.1033C155.518 42.5633 157.506 43.5167 159.521 44.294C161.643 45.1125 163.81 45.7505 165.977 46.3762C170.306 47.6266 174.83 48.7408 178.738 51.4015C181.472 53.2628 185.185 56.7525 184.276 61.0781C183.872 62.9983 182.647 64.4995 181.324 65.6037C179.725 66.9382 177.893 67.8497 176.036 68.53C167.376 71.7023 157.844 69.4337 149.407 73.7424C146.539 75.2074 143.054 77.8747 143.026 82.0714C143.011 84.2515 143.972 86.251 145.159 87.8314C146.58 89.7243 148.421 91.1241 150.294 92.294C152.285 93.4906 154.332 94.5694 156.427 95.5259C158.735 96.6293 161.044 97.7312 163.353 98.8316L177.365 105.52L184.327 108.843C186.451 109.857 188.631 110.83 190.563 112.319C192.145 113.538 194.014 115.538 193.852 118.021C193.724 119.993 192.285 121.416 190.969 122.368C189.266 123.6 187.353 124.397 185.449 125.059C183.254 125.823 181.022 126.457 178.786 127.026C174.18 128.196 169.51 129.028 164.805 129.517C160.085 130.011 155.342 130.172 150.603 129.999C148.208 129.911 145.816 129.737 143.428 129.476C140.967 129.206 138.516 128.79 136.048 128.606C133.816 128.439 131.563 128.478 129.364 129.014C127.529 129.461 125.59 130.259 124.197 131.817C123.703 132.363 123.319 133.019 123.07 133.74C122.821 134.462 122.712 135.233 122.751 136.004C122.866 137.562 123.464 139.027 124.444 140.154C125.55 141.426 126.979 142.298 128.542 142.657C128.926 142.752 129.091 142.047 128.704 141.952L128.704 141.952Z" fill="#E6E6E6"/>
<path d="M196 142.5H0V143.046H196V142.5Z" fill="#3F3D56"/>
<path d="M179.556 116.468L188.773 131.566L180.192 141.046L179.079 138.589L180.986 133.673C180.986 133.673 180.669 129.108 179.556 127.88C178.444 126.651 173.518 119.277 173.518 119.277L179.556 116.468Z" fill="#FFB8B8"/>
<path d="M167.798 67.6636C167.798 67.6636 169.545 70.7195 165.89 83.8863C165.89 83.8863 182.939 115.674 180.237 117.78C177.536 119.887 170.225 124.549 168.318 123.145C166.411 121.74 152.542 74.1592 152.542 74.1592L167.798 67.6636Z" fill="#2F2E41"/>
<path d="M187.105 128.845L189.886 131.917C191.316 133.497 192.27 135.78 189.568 137.711C186.867 139.642 177.491 146.84 174.313 144.558C171.134 142.275 178.127 140.169 178.127 140.169C178.127 140.169 179.283 135.433 179.897 136.484C180.51 137.535 180.51 139.642 180.51 139.642L187.105 128.845Z" fill="#2F2E41"/>
<path d="M153.495 124.72C153.495 124.72 148.41 135.078 148.41 136.306C148.41 137.535 148.728 141.047 148.728 141.047L139.034 143.68L135.697 141.924L136.81 138.764C136.81 138.764 142.848 136.482 144.12 132.093C145.391 127.704 146.821 123.14 146.821 123.14L153.495 124.72Z" fill="#FFB8B8"/>
<path d="M159.374 21.6673C163.061 21.6673 166.049 18.3661 166.049 14.2938C166.049 10.2216 163.061 6.92041 159.374 6.92041C155.688 6.92041 152.7 10.2216 152.7 14.2938C152.7 18.3661 155.688 21.6673 159.374 21.6673Z" fill="#FFB8B8"/>
<path d="M157.627 20.6141L160.813 30.7288L167.797 27.2853C167.797 27.2853 163.03 19.2096 163.03 18.1562L157.627 20.6141Z" fill="#FFB8B8"/>
<path d="M156.674 56.6031H165.096C165.096 56.6031 171.135 66.7855 167.639 77.4945C167.103 79.1344 166.572 81.4316 166.041 84.1475C164.821 90.3934 163.607 98.8541 162.362 106.629C160.614 117.549 158.806 127.116 156.841 127.29C152.868 127.641 145.143 127.582 145.143 125.827C145.143 124.071 150.317 73.2811 150.317 73.2811L151.43 71.1744L151.64 61.9979C151.673 60.5498 152.219 59.1738 153.16 58.1652C154.101 57.1566 155.363 56.5958 156.674 56.6031L156.674 56.6031Z" fill="#2F2E41"/>
<path d="M148.33 136.219C148.33 136.219 150.157 139.642 149.681 142.1C149.204 144.558 148.409 144.207 144.913 144.558C141.417 144.909 129.499 144.909 129.499 142.451C129.499 139.993 138.796 136.801 138.836 137.783C138.875 138.764 139.193 140.695 138.239 141.047C137.286 141.398 138.16 141.134 138.16 141.134L148.33 136.219Z" fill="#2F2E41"/>
<path d="M153.631 77.5996C153.631 77.5996 151.72 89.9141 147.501 85.6711C143.282 81.428 150.31 75.5288 150.31 75.5288L153.631 77.5996Z" fill="#FFB8B8"/>
<path d="M166.83 62.0912C167.052 62.2016 167.296 62.2432 167.538 62.2117C167.779 62.1801 168.008 62.0765 168.2 61.912C168.479 61.6702 168.665 61.3207 168.72 60.9338C169.387 56.6884 170.198 44.9189 170.666 38.9675C171.252 31.4996 168.322 25.7156 168.298 25.6804L166.571 23.0575C166.392 22.7835 166.134 22.5846 165.839 22.4932C165.544 22.4018 165.23 22.4233 164.948 22.5543C164.948 22.5543 159.558 28.7328 159.538 28.9714C159.453 29.9958 158.812 32.2658 155.468 35.9601C151.809 40.0022 151.788 43.5301 151.869 44.5151C151.875 44.5799 151.877 44.6446 151.878 44.7092C151.871 45.1511 151.925 45.5916 152.039 46.0154C153.571 51.353 152.371 57.7434 150.444 64.4139C150.371 64.7153 150.384 65.0343 150.483 65.3268C150.581 65.6193 150.759 65.8708 150.993 66.0465C151.556 66.4695 150.881 65.8418 151.081 66.1136C152.41 67.9116 154.321 65.4056 156.507 62.6712C157.269 61.7186 158.132 60.639 159.15 59.515C160.549 57.9695 163.222 61.4961 164.464 61.4961C165.282 61.507 166.088 61.7099 166.83 62.0912Z" fill="#FFDA63"/>
<path d="M168.435 28.9738C168.435 28.9738 171.586 32.6252 169.201 36.5807C166.815 40.5362 166.772 43.6604 166.772 43.6604C166.772 43.6604 163.403 72.4023 157.381 70.2604L153.735 78.4696L148.873 75.8418L152.544 68.6559C152.544 68.6559 150.216 68.2124 151.075 66.5306C151.678 65.3493 155.598 52.2139 157.878 44.4993C158.844 41.2302 159.515 38.9345 159.515 38.9345C159.515 38.9345 162.672 27.3966 168.435 28.9738Z" fill="#FFDA63"/>
<path opacity="0.2" d="M167.718 43.6996L164.37 57.6081L166.916 42.6118L167.718 43.6996Z" fill="black"/>
<path d="M152.093 11.027C152.093 11.027 150.971 1.37976 160.127 4.54331C160.127 4.54331 166.665 3.21786 168.81 12.2537L170.981 21.7255L169.923 21.0892L169.43 22.2805L167.715 22.7603L166.981 21.1513L166.626 23.1052L152.581 24.652C152.581 24.652 158.872 20.5423 158.971 13.1766L157.773 14.5754L152.093 11.027Z" fill="#2F2E41"/>
<path d="M20.8848 0.810547C20.6724 0.811424 20.4691 0.905321 20.3193 1.07164C20.1696 1.23795 20.0856 1.46311 20.0859 1.6977V73.5635C20.0856 73.7981 20.1695 74.0233 20.3193 74.1896C20.4691 74.3559 20.6724 74.4498 20.8848 74.4506H113.756C113.968 74.4498 114.171 74.3559 114.321 74.1896C114.471 74.0232 114.555 73.7981 114.554 73.5635V1.6977C114.555 1.46312 114.471 1.23797 114.321 1.07165C114.171 0.90533 113.968 0.811429 113.756 0.810547H20.8848Z" fill="#3F3D56"/>
<path d="M20.5502 43.0464C23.3832 43.0373 26.0577 44.1496 28.3904 45.8792C30.8389 47.6947 32.9082 50.1 34.726 52.6474C36.7348 55.4623 38.456 58.5082 40.3037 61.4505C42.0101 64.1676 43.8384 66.8092 46.0376 69.0669C48.1182 71.2029 50.5279 72.9988 53.2456 73.9728C53.5766 74.0914 53.9114 74.1963 54.249 74.2899C54.6295 74.3953 54.7918 73.7462 54.411 73.6407C51.6202 72.8669 49.1249 71.191 46.9798 69.1022C44.7414 66.9226 42.8805 64.3363 41.1696 61.6481C39.3069 58.7213 37.5929 55.6782 35.6233 52.835C33.801 50.2044 31.7516 47.7309 29.3175 45.7762C27.0587 43.9623 24.4422 42.6704 21.6372 42.4182C21.2755 42.3857 20.913 42.372 20.5502 42.3731C20.4712 42.3761 20.3964 42.4129 20.3415 42.4757C20.2866 42.5385 20.2559 42.6224 20.2559 42.7097C20.2559 42.7971 20.2866 42.881 20.3415 42.9438C20.3964 43.0066 20.4712 43.0434 20.5502 43.0464L20.5502 43.0464Z" fill="#FFDA63"/>
<path d="M20.8674 74.1294C25.8508 68.5607 32.6636 65.9283 39.4289 64.2206C46.5048 62.4346 53.805 61.4758 60.5281 58.2895C63.7384 56.8089 66.6853 54.7104 69.2314 52.0915C71.6087 49.5827 73.5807 46.6438 75.0625 43.4016C78.0866 36.8289 79.0272 29.3253 77.7336 22.092C76.365 14.7383 72.972 8.03195 68.0192 2.89152C67.4156 2.26477 66.7908 1.66472 66.1446 1.09137C65.8419 0.822067 65.4081 1.29553 65.7137 1.56744C70.9777 6.25665 74.7896 12.6402 76.62 19.8318C78.4083 26.9261 77.9455 34.4829 75.3084 41.2464C74.0288 44.5319 72.258 47.5562 70.0702 50.1926C67.749 52.9424 64.9887 55.1959 61.9278 56.8399C55.4064 60.397 48.1069 61.498 41.0658 63.136C34.4269 64.6805 27.6549 66.8835 22.3321 71.7362C21.6713 72.3395 21.0386 72.9794 20.4364 73.6534C20.1604 73.9618 20.5911 74.4381 20.8674 74.1294Z" fill="#FFDA63"/>
<path d="M20.493 31.972C28.1412 29.6867 36.2345 29.9929 43.7233 32.851C45.8988 33.6753 48.1303 34.6333 49.9503 36.2269C51.516 37.598 52.8909 39.6734 52.4997 42.0037C52.1392 44.1518 50.3507 45.8486 48.4257 46.159C46.4404 46.4792 44.6315 45.1445 43.7208 43.2532C43.2559 42.3152 43.0436 41.2498 43.1088 40.1829C43.174 39.1159 43.5141 38.0918 44.0889 37.2313C45.2398 35.5188 47.1532 34.5408 49.0336 34.2697C51.1831 33.9597 53.2972 34.6597 55.1564 35.8301C59.3583 38.4752 62.0417 43.0868 65.5706 46.6022C67.2618 48.3402 69.2476 49.6912 71.4136 50.5775C73.5085 51.3774 75.7184 51.7467 77.9337 51.6669C82.5773 51.5362 87.03 49.683 90.8238 46.776C94.6294 43.86 97.7726 40.0314 100.525 35.9454C101.996 33.7605 103.275 31.4129 104.815 29.2857C106.331 27.1918 108.207 25.3303 110.605 24.6294C111.697 24.2959 112.849 24.2888 113.944 24.609C114.021 24.6293 114.102 24.6158 114.17 24.5714C114.238 24.5269 114.287 24.455 114.308 24.3709C114.329 24.2867 114.32 24.1967 114.282 24.1201C114.244 24.0434 114.181 23.9859 114.106 23.9598C111.774 23.2573 109.322 24.0796 107.389 25.5789C105.321 27.1826 103.839 29.5071 102.434 31.7836C99.6249 36.3318 96.6002 40.7395 92.7611 44.2975C88.9281 47.8498 84.3151 50.3953 79.2864 50.9054C76.8808 51.1733 74.4511 50.9118 72.1376 50.1359C69.7192 49.2966 67.6221 47.7807 65.7684 45.8911C62.1263 42.1785 59.2934 37.3053 54.735 34.8202C52.8137 33.7728 50.711 33.2702 48.5819 33.6691C46.7071 34.0202 44.8632 35.0415 43.6813 36.7192C43.0825 37.5626 42.6919 38.5631 42.5475 39.623C42.4031 40.6829 42.5098 41.7661 42.8572 42.7669C43.5306 44.72 45.033 46.4069 46.9411 46.7915C48.867 47.1798 50.8792 46.1986 52.0818 44.5286C52.6839 43.6906 53.0495 42.6755 53.1332 41.6096C53.2169 40.5438 53.015 39.4743 52.5525 38.5343C51.5633 36.4217 49.6334 34.9612 47.7535 33.9304C45.3919 32.678 42.913 31.7155 40.3613 31.0602C35.125 29.6496 29.6859 29.413 24.3654 30.3644C23.0069 30.6094 21.6604 30.9292 20.331 31.3228C20.2555 31.3489 20.1922 31.4064 20.1544 31.4831C20.1165 31.5598 20.1071 31.6497 20.1282 31.7339C20.1492 31.8181 20.1989 31.8899 20.267 31.9344C20.3351 31.9788 20.4161 31.9923 20.493 31.972H20.493Z" fill="#FFDA63"/>
<path d="M84.0759 74.4248C86.232 71.2261 88.4366 67.8332 89.3674 63.9197C89.8307 62.0517 89.8987 60.0909 89.566 58.1892C89.2442 56.5311 88.617 54.9639 87.7235 53.585C85.891 50.7094 83.1893 48.5724 80.3144 47.1297C76.7541 45.3431 72.9146 44.427 69.1987 43.1387C65.7734 41.9512 62.2616 40.4017 59.7028 37.5155C57.2853 34.7885 55.9155 30.6839 57.2639 26.992C58.4873 23.6422 61.4689 21.4207 64.4452 20.2479C68.0944 18.8101 72.0028 18.5512 75.7214 17.4116C78.8302 16.4588 82.0117 14.8343 83.9366 11.8515C85.5679 9.32367 86.0915 5.67839 84.7876 2.8531C84.4696 2.1682 84.0416 1.55282 83.5245 1.03694C83.2345 0.746569 82.8022 1.22129 83.0936 1.513C85.2924 3.71444 85.3186 7.4809 84.0798 10.269C82.6252 13.5427 79.4845 15.4075 76.4615 16.4667C72.8634 17.7274 69.0558 17.9965 65.4403 19.1826C62.3502 20.1964 59.3273 22.0141 57.5089 25.0521C56.6259 26.507 56.1416 28.2125 56.1143 29.9639C56.1237 31.8381 56.5764 33.6771 57.4274 35.2985C59.1464 38.6704 62.2105 40.8516 65.3639 42.3235C71.9937 45.418 79.8586 45.8905 85.3207 51.5641C87.6664 54.0006 89.2592 57.2366 89.1672 60.8616C89.0658 64.8599 87.131 68.4976 85.1188 71.6924C84.6096 72.5009 84.0821 73.2951 83.5497 74.085C83.3153 74.4327 83.8441 74.7687 84.0759 74.4248V74.4248Z" fill="#FFDA63"/>
<path d="M34.3024 1.71059C35.1412 2.38594 35.82 3.27496 36.2813 4.30213C36.7425 5.3293 36.9726 6.46428 36.9518 7.61068C36.9188 8.77136 36.6265 9.905 36.1008 10.9106C35.5751 11.9162 34.8324 12.7625 33.9389 13.3742C32.2465 14.4778 29.8678 14.6167 28.5201 12.8133C27.9626 12.0817 27.6847 11.1392 27.7452 10.1853C27.7932 9.72493 27.9408 9.28409 28.1756 8.90009C28.4104 8.51609 28.7255 8.20022 29.0942 7.97922C30.8038 6.9016 32.8528 7.53603 34.4327 8.5686C35.4106 9.20772 36.3054 9.98523 37.2404 10.6952C38.1337 11.3794 39.0877 11.9616 40.0875 12.4327C44.0681 14.2902 48.7386 14.3123 52.6625 12.259C54.4404 11.3186 56.0327 9.99959 57.348 8.37767C58.6633 6.75574 59.6758 4.86283 60.3273 2.80756C60.4845 2.29943 60.617 1.78237 60.7242 1.2586C60.8109 0.83673 60.2235 0.656613 60.1365 1.07962C59.2208 5.53119 56.4232 9.38054 52.7576 11.4583C48.762 13.7231 43.8288 13.6598 39.7902 11.5538C38.7549 10.9903 37.7681 10.3242 36.8418 9.56361C35.8892 8.80935 34.9392 8.03049 33.8742 7.47684C32.2002 6.60654 30.0091 6.36161 28.4393 7.6488C28.0711 7.9447 27.7643 8.32406 27.5396 8.7615C27.3148 9.19893 27.1771 9.68436 27.1358 10.1853C27.0765 11.211 27.3534 12.226 27.9158 13.0446C29.2216 14.9905 31.5721 15.266 33.5 14.3677C35.5278 13.4228 36.9887 11.2834 37.4223 8.91911C37.682 7.45938 37.5549 5.94783 37.056 4.56601C36.5571 3.18418 35.7078 1.99082 34.61 1.12925C34.2911 0.875899 33.9865 1.45963 34.3024 1.71059H34.3024Z" fill="#FFDA63"/>
<path d="M98.9325 74.2953C99.5788 71.0504 100.868 68.0041 102.708 65.3756C104.54 62.7394 106.856 60.5608 109.503 58.9827C110.99 58.0991 112.574 57.4304 114.215 56.993C114.596 56.8916 114.435 56.2422 114.053 56.3438C111.057 57.161 108.261 58.7002 105.866 60.8512C103.461 62.9887 101.493 65.6645 100.091 68.7027C99.3017 70.4172 98.7148 72.2366 98.3448 74.1163C98.2624 74.5388 98.8498 74.7193 98.9325 74.2953H98.9325Z" fill="#FFDA63"/>
<path d="M95.6961 1.13673C94.3968 1.15118 93.301 2.14475 92.7689 3.41157C92.165 4.84919 92.3301 6.43125 92.9775 7.81637C94.4876 11.0477 97.7851 12.1928 100.159 14.427C101.261 15.4635 102.221 16.7825 102.474 18.3965C102.72 19.9697 102.212 21.5911 101.378 22.8571C100.469 24.2394 99.0966 25.1898 97.6673 25.7891C96.1974 26.4066 94.6448 26.7505 93.073 26.8067C91.5547 26.8542 89.9493 26.5612 88.6919 25.5605C88.17 25.1484 87.7313 24.621 87.4035 24.0118C87.0757 23.4025 86.866 22.7248 86.7877 22.0213C86.7234 21.3853 86.821 20.742 87.0697 20.1639C87.3184 19.5858 87.7082 19.0959 88.1952 18.7493C89.1774 18.1078 90.3424 17.8989 91.4579 18.1644C94.2367 18.7711 95.6762 21.8174 96.2907 24.6099C97.0732 28.1658 96.7624 31.9462 97.9659 35.4015C98.9919 38.3254 100.86 40.7954 103.282 42.4311C106.058 44.2965 109.046 44.9003 112.196 43.9891C112.999 43.7523 113.779 43.4318 114.526 43.0317C114.879 42.8447 114.571 42.264 114.218 42.4504C111.087 44.1062 107.883 44.1591 104.732 42.5274C102.12 41.1586 100.028 38.8194 98.8193 35.9188C97.3934 32.4905 97.6769 28.641 96.9982 25.0198C96.4519 22.1051 95.1249 18.8561 92.4141 17.7602C90.2328 16.8782 87.3092 17.5628 86.4011 20.1579C85.9264 21.5145 86.2011 23.0657 86.8531 24.2903C87.5887 25.632 88.7506 26.6225 90.1118 27.0687C91.6406 27.6055 93.2902 27.5605 94.8583 27.2873C96.4364 27.0437 97.9622 26.4899 99.3636 25.6521C100.706 24.8469 101.798 23.6136 102.497 22.113C103.148 20.6463 103.358 18.9393 102.862 17.3762C101.768 13.9228 98.4596 12.4969 95.9894 10.5002C94.7724 9.51633 93.6299 8.22404 93.1764 6.59562C92.964 5.89813 92.9351 5.14838 93.0929 4.43343C93.2508 3.71848 93.589 3.06767 94.0682 2.55656C94.5068 2.09074 95.0879 1.82422 95.6961 1.80998C95.7751 1.80695 95.8499 1.77016 95.9048 1.70736C95.9597 1.64456 95.9904 1.56066 95.9904 1.47335C95.9904 1.38604 95.9597 1.30214 95.9048 1.23934C95.8499 1.17654 95.7751 1.13975 95.6961 1.13672L95.6961 1.13673Z" fill="#FFDA63"/>
<path d="M83.4912 62.6348C89.9983 62.6348 95.2733 56.8071 95.2733 49.6184C95.2733 42.4297 89.9983 36.6021 83.4912 36.6021C76.984 36.6021 71.709 42.4297 71.709 49.6184C71.709 56.8071 76.984 62.6348 83.4912 62.6348Z" fill="#FFDA63"/>
<path d="M86.5384 20.4439C89.1189 20.4439 91.2107 18.133 91.2107 15.2823C91.2107 12.4316 89.1189 10.1206 86.5384 10.1206C83.958 10.1206 81.8662 12.4316 81.8662 15.2823C81.8662 18.133 83.958 20.4439 86.5384 20.4439Z" fill="#FFDA63"/>
<path d="M29.4554 24.2589C32.0359 24.2589 34.1277 21.9479 34.1277 19.0972C34.1277 16.2465 32.0359 13.9355 29.4554 13.9355C26.875 13.9355 24.7832 16.2465 24.7832 19.0972C24.7832 21.9479 26.875 24.2589 29.4554 24.2589Z" fill="#FFDA63"/>
<path opacity="0.2" d="M162.537 107.184L165.669 84.1299L163.122 109.017L162.537 107.184Z" fill="black"/>
<path d="M167.656 8.53925C169.606 8.53925 171.187 6.79251 171.187 4.63779C171.187 2.48307 169.606 0.736328 167.656 0.736328C165.705 0.736328 164.124 2.48307 164.124 4.63779C164.124 6.79251 165.705 8.53925 167.656 8.53925Z" fill="#2F2E41"/>
<path d="M164.017 3.6826C164.075 2.69275 164.472 1.76455 165.128 1.08706C165.784 0.409575 166.649 0.0337521 167.546 0.0361367C167.474 0.0259149 167.401 0.0134906 167.327 0.00820898C166.864 -0.0250239 166.4 0.0428603 165.96 0.207978C165.521 0.373096 165.116 0.632212 164.767 0.970522C164.418 1.30883 164.134 1.7197 163.929 2.17966C163.724 2.63961 163.603 3.13963 163.574 3.65114C163.544 4.16266 163.606 4.67564 163.755 5.16077C163.905 5.64591 164.14 6.09368 164.446 6.47852C164.753 6.86335 165.125 7.1777 165.542 7.4036C165.958 7.6295 166.411 7.76252 166.874 7.79506C166.948 7.80034 167.021 7.79823 167.095 7.79842C166.204 7.67376 165.39 7.17867 164.818 6.41398C164.246 5.64929 163.959 4.67252 164.017 3.6826Z" fill="#2F2E41"/>
<path d="M158.827 16.5861C159.437 16.5861 159.931 15.8219 159.931 14.8793C159.931 13.9366 159.437 13.1724 158.827 13.1724C158.218 13.1724 157.724 13.9366 157.724 14.8793C157.724 15.8219 158.218 16.5861 158.827 16.5861Z" fill="#FFB8B8"/>
<path opacity="0.2" d="M156.619 46.822L151.725 64.739L157.723 45.021L156.619 46.822Z" fill="black"/>
</g>
<defs>
<clipPath id="clip0">
<rect width="196" height="145" fill="white"/>
</clipPath>
</defs>
</svg>
