<svg width="187" height="151" viewBox="0 0 187 151" fill="none" xmlns="http://www.w3.org/2000/svg">
<g clip-path="url(#clip0)">
<path d="M123.046 84.5422C119.101 86.9081 112.073 89.8726 104.891 86.826L100.248 84.8566L109.552 74.4269C102.127 66.2407 98.02 55.5815 98.0313 44.53C98.0426 33.4784 102.172 22.8277 109.613 14.6567C117.054 6.4857 127.273 1.38091 138.275 0.338736C149.277 -0.703443 160.273 2.39179 169.115 9.02027C177.958 15.6488 184.014 25.3347 186.1 36.1876C188.186 47.0405 186.153 58.2813 180.398 67.7159C174.643 77.1506 165.578 84.1019 154.974 87.2131C144.369 90.3243 132.986 89.372 123.046 84.5421V84.5422ZM105.22 44.5051C105.2 49.5996 106.233 54.6432 108.257 59.3188C110.28 63.9944 113.249 68.2007 116.977 71.6732L119.543 74.0848L113.688 80.6477C116.738 80.029 119.394 78.3792 120.741 77.421L122.589 76.1061L124.576 77.1982C130.07 80.2062 136.233 81.7826 142.496 81.782C163.05 81.782 179.772 65.0597 179.772 44.5051C179.772 23.9506 163.05 7.22817 142.496 7.22817C121.942 7.22817 105.22 23.9506 105.22 44.5051V44.5051Z" fill="#3F3D56"/>
<path d="M101.605 44.5053C101.605 21.9218 119.913 3.61426 142.496 3.61426C165.079 3.61426 183.386 21.9218 183.386 44.5053C183.386 67.0888 165.079 85.3963 142.496 85.3963C135.623 85.4063 128.859 83.6759 122.835 80.3661C120.009 82.3773 113.113 86.3887 106.301 83.4992L114.501 74.3072C110.425 70.488 107.177 65.8719 104.959 60.7454C102.74 55.6188 101.599 50.0912 101.605 44.5053Z" fill="#FFDC29"/>
<path opacity="0.1" d="M176.42 44.5936C176.42 23.2283 160.033 5.69333 139.144 3.86342C140.335 3.75909 141.539 3.70264 142.758 3.70264C165.341 3.70264 183.648 22.0101 183.648 44.5936C183.648 67.1771 165.341 85.4846 142.758 85.4846C141.541 85.4846 140.339 85.4274 139.149 85.3233C160.036 83.4907 176.42 65.9569 176.42 44.5936Z" fill="black"/>
<path d="M48.2688 141.349C38.0517 141.353 28.1433 137.846 20.2043 131.415C12.2652 124.983 6.778 116.018 4.66213 106.023C2.54627 96.0266 3.93038 85.6072 8.58249 76.5104C13.2346 67.4136 20.872 60.1922 30.2148 56.0565C39.5575 51.9208 50.0379 51.1222 59.8994 53.7943C69.761 56.4665 78.4045 62.4471 84.3813 70.7339C90.3581 79.0207 93.3051 89.1101 92.7283 99.3111C92.1516 109.512 88.0861 119.205 81.2133 126.765L90.5171 137.195L85.8744 139.164C78.6921 142.211 71.6637 139.247 67.7188 136.881C61.6561 139.82 55.0064 141.347 48.2688 141.349ZM48.2688 59.5666C27.7148 59.5666 10.9927 76.289 10.9927 96.8435C10.9927 117.398 27.7148 134.12 48.2688 134.12C54.5322 134.121 60.695 132.545 66.1888 129.537L68.1763 128.445L70.0243 129.76C71.3711 130.718 74.0271 132.367 77.0767 132.986L71.2221 126.423L73.7885 124.012C77.5162 120.539 80.485 116.333 82.5083 111.657C84.5315 106.982 85.5654 101.938 85.5449 96.8435C85.5449 76.289 68.8229 59.5666 48.2688 59.5666Z" fill="#3F3D56"/>
<path d="M89.1591 96.8432C89.1591 74.2597 70.852 55.9521 48.269 55.9521C25.686 55.9521 7.37891 74.2597 7.37891 96.8432C7.37891 119.427 25.686 137.734 48.269 137.734C55.142 137.744 61.9057 136.014 67.9293 132.704C70.7559 134.715 77.6514 138.727 84.4633 135.837L76.2635 126.645C80.3397 122.826 83.5876 118.21 85.8059 113.083C88.0242 107.957 89.1656 102.429 89.1591 96.8432Z" fill="#FFDC29"/>
<path opacity="0.1" d="M14.607 96.6366C14.607 75.2713 30.9932 57.7363 51.883 55.9064C50.692 55.8021 49.4872 55.7456 48.269 55.7456C25.686 55.7456 7.37891 74.0531 7.37891 96.6366C7.37891 119.22 25.686 137.528 48.269 137.528C49.4853 137.528 50.688 137.47 51.8773 137.366C30.9903 135.534 14.607 118 14.607 96.6366Z" fill="black"/>
<path d="M152.095 31.514C149.419 26.9934 144.126 26.7827 144.126 26.7827C144.126 26.7827 138.968 26.1231 135.66 33.0081C132.576 39.4255 128.32 45.6216 134.975 47.1239L136.177 43.3824L136.921 47.4024C137.869 47.4706 138.819 47.4868 139.768 47.4511C146.895 47.221 153.683 47.5184 153.464 44.9609C153.174 41.5611 154.669 35.8638 152.095 31.514Z" fill="#2F2E41"/>
<path d="M134.595 71.1037C134.517 71.6009 134.402 72.0919 134.254 72.5728C134.086 73.0436 133.828 73.479 133.675 73.9546C133.187 75.4707 133.863 77.1611 134.944 78.3313C135.881 79.3421 137.09 80.0602 138.426 80.399C139.409 80.6095 140.412 80.7149 141.418 80.7135C144.199 80.8078 147.052 80.8922 149.687 79.9983C150.52 79.709 151.324 79.3436 152.09 78.9069C152.332 78.7917 152.545 78.624 152.713 78.416C152.89 78.1114 152.968 77.7598 152.938 77.409C152.932 76.23 152.693 75.057 152.75 73.8793C152.781 73.227 152.904 72.5751 152.843 71.9248C152.76 71.1862 152.451 70.4914 151.958 69.9355C151.464 69.3795 150.811 68.9895 150.088 68.819C149.34 68.6585 148.565 68.7459 147.804 68.8191C145.828 69.009 143.844 69.0977 141.859 69.0849C139.831 69.072 137.816 68.7624 135.798 68.7301C135.202 68.7205 135.214 68.9045 135.024 69.482C134.849 70.0136 134.706 70.5551 134.595 71.1037Z" fill="#2F2E41"/>
<path d="M140.35 41.9903C140.253 42.5006 140.148 43.0295 139.841 43.4488C139.488 43.9313 138.913 44.207 138.533 44.6687C137.962 45.3637 137.929 46.3417 137.927 47.2413C137.925 48.0701 137.942 48.9541 138.404 49.642C138.733 50.0694 139.141 50.4293 139.606 50.7021C141.339 51.8702 143.212 53.0592 145.302 53.0978C146.168 53.1137 147.096 52.8901 147.666 52.2379C147.912 51.9316 148.105 51.5865 148.238 51.2168C148.773 49.8996 149.096 48.5066 149.198 47.0888C149.275 46.4223 149.213 45.747 149.015 45.1058C148.761 44.398 148.248 43.8156 147.909 43.1445C147.508 42.3465 147.361 41.4448 147.489 40.5608C147.506 40.4986 147.5 40.4324 147.474 40.3736C147.446 40.3421 147.411 40.3175 147.372 40.3017C147.333 40.2859 147.291 40.2793 147.249 40.2825L143.106 39.9842C142.72 39.965 142.335 39.921 141.955 39.8526C141.732 39.8071 141.142 39.4899 140.929 39.5743C140.535 39.7304 140.431 41.5671 140.35 41.9903Z" fill="#A0616A"/>
<path opacity="0.1" d="M140.35 42.1192C140.253 42.6295 140.148 43.1584 139.841 43.5777C139.488 44.0602 138.913 44.3359 138.533 44.7976C137.962 45.4926 137.929 46.4705 137.927 47.3702C137.925 48.199 137.942 49.083 138.404 49.7709C138.733 50.1983 139.141 50.5582 139.606 50.831C141.339 51.9991 143.212 53.1881 145.302 53.2266C146.168 53.2426 147.096 53.019 147.666 52.3668C147.912 52.0604 148.105 51.7154 148.238 51.3457C148.773 50.0285 149.096 48.6355 149.198 47.2177C149.275 46.5512 149.213 45.8759 149.015 45.2347C148.761 44.5269 148.248 43.9445 147.909 43.2734C147.508 42.4754 147.361 41.5736 147.489 40.6897C147.506 40.6275 147.5 40.5613 147.474 40.5025C147.446 40.471 147.411 40.4464 147.372 40.4306C147.333 40.4148 147.291 40.4082 147.249 40.4114L143.106 40.1131C142.72 40.0939 142.335 40.0499 141.955 39.9815C141.732 39.936 141.142 39.6188 140.929 39.7032C140.535 39.8593 140.431 41.696 140.35 42.1192Z" fill="black"/>
<path d="M144.312 42.5456C147.67 42.5456 150.391 39.8238 150.391 36.4664C150.391 33.109 147.67 30.3872 144.312 30.3872C140.955 30.3872 138.233 33.109 138.233 36.4664C138.233 39.8238 140.955 42.5456 144.312 42.5456Z" fill="#A0616A"/>
<path d="M141.202 50.0822C141.503 50.43 141.865 50.7192 142.27 50.9354C142.693 51.1101 143.147 51.1966 143.604 51.1894C144.7 51.2202 145.888 51.0194 146.65 50.2316C147.633 49.2161 147.6 47.5781 148.371 46.3933C148.433 46.2859 148.517 46.1933 148.619 46.1219C148.748 46.0515 148.894 46.018 149.041 46.0248C150.014 46.0157 150.861 46.6466 151.626 47.2479C151.986 47.4956 152.295 47.8103 152.536 48.1747C152.687 48.4698 152.791 48.7869 152.843 49.1143C153.222 50.967 153.345 52.8612 153.467 54.7484C153.534 55.7907 153.602 56.8341 153.597 57.8786C153.58 61.3199 152.78 64.7036 151.985 68.0517C151.883 68.4831 151.742 68.9653 151.35 69.1719C151.175 69.2505 150.987 69.2964 150.796 69.3072C148.518 69.5747 146.235 69.8426 143.941 69.8779C143.046 69.8917 142.152 69.87 141.257 69.8129C141.103 69.8109 140.951 69.7843 140.805 69.7341C140.608 69.6393 140.438 69.4951 140.312 69.3155C139.072 67.7522 138.998 65.5908 139.006 63.595C139.026 58.7155 139.2 53.8399 139.529 48.9681C139.557 48.566 139.562 48.0777 139.273 47.7613C139.837 48.5974 140.483 49.3749 141.202 50.0822Z" fill="white"/>
<path d="M139.915 43.0628C139.71 43.4345 138.196 44.3574 137.904 44.6655C136.271 46.3865 133.291 46.322 131.798 48.1654C131.272 48.8139 130.999 49.6289 130.799 50.439C130.515 51.5849 130.363 52.8346 130.839 53.915C131.296 54.9546 132.26 55.6734 132.914 56.602C133.632 57.6217 133.955 58.8597 134.265 60.0679C134.493 60.96 134.723 61.8742 134.634 62.7908C134.533 63.833 134.029 64.7872 133.731 65.791C133.433 66.7948 133.382 67.9904 134.071 68.7793C134.576 69.3588 135.37 69.5886 136.128 69.7178C137.099 69.8638 138.078 69.949 139.06 69.9731C139.927 70.0114 140.883 70.0189 141.549 69.4632C142.075 69.0247 142.303 68.3132 142.333 67.6292C142.362 66.9452 142.22 66.2672 142.131 65.5884C142.039 64.8847 142.003 64.1749 141.973 63.4658C141.84 60.2841 141.822 57.1004 141.919 53.9146C141.968 53.2525 141.935 52.5868 141.822 51.9326C141.636 51.0804 141.176 50.3188 140.791 49.5358C140.023 48.061 139.675 46.4035 139.786 44.7443C139.902 43.0393 140.646 41.7403 139.915 43.0628Z" fill="white"/>
<path d="M148.452 43.1925C148.764 43.5139 149.827 43.6199 150.225 43.8269C150.599 43.9997 150.99 44.1349 151.391 44.2305C152.842 44.6491 154.222 45.2826 155.485 46.1099C155.748 46.2635 155.98 46.464 156.17 46.7014C156.371 47.0273 156.5 47.3919 156.549 47.7712C156.744 48.7361 156.94 49.7126 156.896 50.6961C156.849 51.7399 156.535 52.7509 156.223 53.7482L155.057 57.4745C154.187 60.256 153.312 63.0648 153.067 65.9688C152.932 67.5783 152.992 69.1983 153.246 70.7932C153.27 70.8708 153.278 70.9526 153.267 71.0332C153.257 71.1138 153.23 71.1913 153.188 71.2605C153.111 71.3364 153.01 71.3829 152.902 71.3918C152.34 71.4798 151.795 71.193 151.286 70.9392C149.728 70.1639 148.065 69.6199 146.351 69.3243C147.021 68.356 147.538 67.2902 147.883 66.1645C148.08 65.4497 148.234 64.7241 148.347 63.9913L148.889 60.8554C149.109 59.7092 149.265 58.5513 149.354 57.3875C149.395 56.9507 149.369 56.5103 149.278 56.0812C149.153 55.6728 148.987 55.2781 148.783 54.9031C147.89 53.0443 147.47 50.9232 147.822 48.891C147.976 48.0016 148.275 47.1111 148.15 46.2172C148.03 45.3577 148.155 44.6898 147.934 43.8392C147.029 40.3469 147.863 42.5878 148.452 43.1925Z" fill="white"/>
<path d="M131.782 51.1044C131.374 51.9497 130.693 52.6699 130.462 53.5792C130.371 54.0042 130.333 54.4385 130.347 54.8727C130.306 55.5271 130.371 56.1838 130.538 56.8177C130.668 57.2187 130.878 57.5885 131.03 57.9816C131.241 58.5308 131.335 59.1182 131.306 59.706C131.265 60.5202 130.989 61.3107 130.967 62.1257C130.933 63.4074 131.526 64.6123 132.104 65.7566C132.25 65.396 132.473 65.0716 132.757 64.8061C133.041 64.5406 133.379 64.3403 133.749 64.2193C134.118 64.0983 134.51 64.0596 134.896 64.1057C135.282 64.1518 135.654 64.2818 135.984 64.4864C136.117 64.3237 136.179 64.1152 136.159 63.9064C136.202 62.4194 136.243 60.9324 136.283 59.4454C136.345 57.1455 136.405 54.8149 135.876 52.5759C135.637 51.565 135.265 50.5579 134.584 49.7738C134.225 49.361 133.007 48.2734 132.418 48.736C132.154 48.944 132.216 49.5102 132.174 49.7969C132.11 50.2501 131.978 50.691 131.782 51.1044Z" fill="white"/>
<path d="M157.015 48.668C157.179 49.2776 157.249 49.9086 157.223 50.5393C157.231 51.8247 157.214 53.11 157.172 54.3951C157.178 55.0543 157.094 55.7111 156.921 56.3473C156.79 56.761 156.587 57.1489 156.451 57.5612C156.044 58.7969 156.266 60.137 156.301 61.4375C156.326 61.8585 156.29 62.2807 156.194 62.6915C155.98 63.4977 155.402 64.1491 154.999 64.8797C154.616 65.5735 154.385 66.3512 153.928 66.9985C153.471 67.6457 152.68 68.1586 151.912 67.9599C151.331 67.8093 150.918 67.2948 150.633 66.7668C150.009 65.6056 149.796 64.2681 150.028 62.9707C150.314 61.3923 151.241 59.992 151.576 58.4229C152.035 56.2682 151.337 54.0448 151.358 51.8418C151.348 51.4965 151.395 51.1519 151.497 50.8216C151.672 50.3184 152.049 49.9166 152.397 49.513C152.832 49.0087 153.235 48.4785 153.606 47.9254C153.855 47.5539 154.194 46.5982 154.636 46.5188C155.622 46.3414 156.77 47.9062 157.015 48.668Z" fill="white"/>
<path d="M126.666 70.1453C126.12 70.0083 125.558 69.9486 124.996 69.9679C124.406 70.0005 123.829 70.1585 123.305 70.4313C122.78 70.7041 122.319 71.0854 121.954 71.55C121.588 72.0145 121.325 72.5517 121.183 73.1256C121.041 73.6996 121.022 74.2973 121.129 74.8789C121.265 75.509 121.488 76.1172 121.79 76.6863C122.233 77.5846 122.764 78.4809 123.583 79.0566C124.077 79.3731 124.609 79.6262 125.166 79.8098L129.482 81.4358C130.117 81.6749 130.752 81.9142 131.393 82.136C134.614 83.2495 137.973 83.9172 141.375 84.1205C142.41 84.2175 143.454 84.1646 144.474 83.9634C144.721 83.9313 144.947 83.8091 145.109 83.6205C145.191 83.4772 145.24 83.317 145.251 83.1521L145.516 81.2928C145.576 81.0339 145.568 80.7641 145.494 80.509C145.372 80.1965 145.067 79.9999 144.777 79.8329C141.939 78.2032 138.626 77.3041 136.238 75.0673C135.675 74.5408 135.205 73.7061 134.522 73.3484C133.747 72.9428 132.835 72.7113 132.034 72.3375C130.284 71.5204 128.563 70.5815 126.666 70.1453Z" fill="#2F2E41"/>
<path opacity="0.1" d="M130.975 72.6519C132.5 73.1299 138.941 76.4417 140.045 77.598C139.897 77.6513 134.876 74.8376 134.726 74.7924C133.345 74.4131 131.992 73.9365 130.679 73.3662C130.417 73.2452 128.979 72.6765 129.044 72.3464C129.118 71.9739 130.704 72.567 130.975 72.6519Z" fill="black"/>
<path d="M150.006 85.0846C150.093 85.0909 150.179 85.0656 150.248 85.0134C150.279 84.9743 150.301 84.9296 150.314 84.8818C150.327 84.8341 150.33 84.7842 150.324 84.7351L150.317 82.2021C149.588 81.8551 148.774 81.7438 147.974 81.637L144.243 81.1382C144.328 81.1496 143.659 82.7453 143.762 82.9583C143.943 83.3338 145.325 83.6666 145.715 83.8439C147.07 84.4602 148.479 85.1377 150.006 85.0846Z" fill="#A0616A"/>
<path d="M138.3 82.1933C137.595 82.3055 136.809 82.4047 136.352 82.9531C135.774 83.6486 136.02 84.6854 136.296 85.547C136.313 85.6582 136.352 85.7649 136.411 85.8607C136.47 85.9566 136.547 86.0397 136.638 86.1051C136.73 86.1706 136.834 86.217 136.943 86.2417C137.053 86.2663 137.167 86.2687 137.277 86.2487C137.92 86.2894 138.603 86.3213 139.165 86.0061C139.419 85.8381 139.664 85.6561 139.898 85.4611C140.312 85.1856 140.767 84.9775 141.246 84.8447C142.127 84.5676 143.034 84.3807 143.953 84.2869C144.314 84.2705 144.673 84.2073 145.019 84.099C145.191 84.0433 145.349 83.9486 145.479 83.8222C145.609 83.6958 145.709 83.5411 145.769 83.3701C145.899 82.9098 145.632 82.4405 145.375 82.0368C145.08 81.508 144.696 81.0337 144.241 80.6342C143.545 80.0941 143.201 80.5087 142.501 80.8543C141.175 81.5085 139.759 81.9599 138.3 82.1933Z" fill="#A0616A"/>
<path d="M136.458 82.8281L131.985 81.5059C131.449 81.3191 130.888 81.2104 130.32 81.1833C130.036 81.1717 129.753 81.2208 129.489 81.3274C129.226 81.434 128.988 81.5957 128.792 81.8016C128.445 82.2087 128.345 82.7651 128.259 83.293L128.074 84.4221C127.951 84.9913 127.916 85.5761 127.97 86.156C128 86.446 128.096 86.7253 128.25 86.9729C128.404 87.2204 128.612 87.4295 128.859 87.5844C129.478 87.9221 130.237 87.7572 130.928 87.6159C132.323 87.3307 133.743 87.1784 135.167 87.1613C135.702 87.1549 136.264 87.1616 136.737 86.9109C137.012 86.748 137.242 86.5206 137.409 86.2484C137.576 85.9761 137.674 85.6672 137.694 85.3486C137.782 84.3841 137.46 83.1242 136.458 82.8281Z" fill="#2F2E41"/>
<path d="M151.764 81.6761C152.344 81.5744 152.856 81.2448 153.412 81.0503C154.194 80.7765 155.041 80.7765 155.87 80.7795C156.175 80.7517 156.481 80.813 156.751 80.956C157.116 81.199 157.21 81.6854 157.272 82.1195L157.646 84.7387C157.747 85.2273 157.757 85.7301 157.677 86.2225C157.567 86.7079 157.236 87.1758 156.755 87.301C156.17 87.4531 155.596 87.0794 155.044 86.8339C153.664 86.2204 152.059 86.3772 150.62 85.9186C150.482 85.891 150.352 85.8346 150.238 85.7529C150.123 85.6713 150.028 85.5664 149.957 85.4451C149.908 85.2996 149.891 85.1453 149.906 84.9925C149.93 84.1506 149.753 83.001 150.006 82.1964C150.234 81.4728 151.117 81.6761 151.764 81.6761Z" fill="#2F2E41"/>
<path d="M161.231 69.0912C162.125 68.8671 163.051 68.8037 163.967 68.9042C164.699 68.9848 165.452 69.1884 165.987 69.6948C166.637 70.3111 166.846 71.2642 166.863 72.1599C166.892 73.9438 166.3 75.6823 165.189 77.0785C164.918 77.4316 164.595 77.7421 164.232 77.9997C163.84 78.2448 163.423 78.4461 162.987 78.5998L153.322 82.4122C150.779 83.4151 148.227 84.421 145.575 85.0822C145.502 85.1172 145.424 85.1374 145.343 85.1415C145.263 85.1456 145.182 85.1335 145.107 85.1061C145.031 85.0787 144.961 85.0363 144.902 84.9817C144.843 84.927 144.796 84.861 144.762 84.7877C143.916 83.578 143.205 82.2784 142.644 80.9125C142.617 80.8801 142.599 80.8417 142.59 80.8006C142.582 80.7595 142.583 80.717 142.595 80.6766C142.606 80.6362 142.627 80.5992 142.656 80.5686C142.684 80.538 142.72 80.5147 142.759 80.5008L149.596 76.5727C150.097 76.3112 150.564 75.9892 150.987 75.614C151.283 75.3276 151.525 74.9908 151.702 74.6194C151.843 74.3234 151.857 73.6249 152.038 73.4061C152.215 73.1919 152.821 73.1748 153.101 73.0906C153.496 72.9696 153.883 72.8234 154.259 72.6529C155.788 71.9687 157.15 70.9747 158.616 70.1736C159.438 69.7035 160.317 69.3398 161.231 69.0912Z" fill="#2F2E41"/>
<path opacity="0.1" d="M157.355 72.0245C156.181 72.9067 154.66 73.7176 153.496 74.623C153.098 74.932 146.475 78.6555 146.382 79.1501C147.468 79.3331 154.386 74.4933 155.376 74.0103C156.365 73.5274 157.243 72.8464 158.112 72.1703C158.334 71.9981 159.273 71.4802 158.637 71.2877C158.279 71.1793 157.62 71.8482 157.355 72.0245Z" fill="black"/>
<path d="M149.274 43.2778H138.964C138.545 43.2778 138.143 43.4442 137.847 43.7404C137.551 44.0366 137.384 44.4384 137.384 44.8572V45.4356H137.272V46.729H137.384V47.6345H137.272V48.4105H137.384V57.9543C137.384 58.3732 137.551 58.7749 137.847 59.0711C138.143 59.3673 138.545 59.5337 138.964 59.5337H149.274C149.693 59.5337 150.095 59.3673 150.391 59.0711C150.687 58.7749 150.853 58.3732 150.853 57.9543V44.8572C150.853 44.4383 150.687 44.0366 150.391 43.7404C150.095 43.4442 149.693 43.2778 149.274 43.2778Z" fill="#D0CDE1"/>
<path d="M150.912 31.0781L145.683 28.3389L138.462 29.4595L136.968 36.0585L140.687 35.9153L141.726 33.491V35.8755L143.442 35.8095L144.438 31.9496L145.061 36.0585L151.161 35.9339L150.912 31.0781Z" fill="#2F2E41"/>
<path d="M133.15 68.2362C133.386 68.6384 133.723 68.9728 134.126 69.2073C134.391 69.3282 134.679 69.387 134.97 69.3792C135.261 69.3714 135.546 69.2972 135.804 69.1623C136.319 68.8863 136.74 68.4638 137.015 67.9482C137.583 66.9447 137.701 65.7438 137.63 64.5926C137.559 63.4415 137.313 62.308 137.204 61.1598C137.125 60.3251 137.119 59.4855 137.113 58.6471C137.093 58.4708 137.13 58.2928 137.218 58.139C137.37 57.9879 137.567 57.8897 137.779 57.859C138.926 57.5182 139.687 56.4431 140.233 55.3783C140.597 54.6673 140.914 53.8901 140.844 53.0942C140.774 52.2983 140.202 51.4965 139.407 51.4153C138.752 51.3484 138.146 51.7646 137.674 52.2233C136.481 53.3878 135.715 54.9194 135.498 56.5719C135.394 57.3812 135.424 58.2124 135.204 58.998C134.734 60.6755 133.263 61.7039 132.531 63.2133C131.723 64.8765 132.169 66.7647 133.15 68.2362Z" fill="#A0616A"/>
<path d="M154.788 61.828C154.621 62.2171 154.378 62.5687 154.072 62.862C153.767 63.1554 153.406 63.3847 153.011 63.5362C152.519 63.7337 151.977 63.7669 151.465 63.6309C151.211 63.5605 150.977 63.4325 150.781 63.2569C150.584 63.0812 150.431 62.8627 150.333 62.6183C150.255 62.372 150.212 62.1159 150.205 61.8576C150.132 60.7264 150.16 59.5608 150.571 58.5043C150.73 58.0968 150.943 57.7104 151.068 57.2914C151.191 56.8075 151.254 56.3104 151.256 55.8112L151.391 52.7247C151.413 52.5006 151.398 52.2744 151.345 52.0555C151.21 51.6089 150.793 51.3187 150.41 51.0523C149.485 50.4091 148.571 49.6586 148.123 48.625C147.969 48.3138 147.914 47.963 147.965 47.6196C148.091 47.0067 148.71 46.6099 149.321 46.4763C149.721 46.3888 150.135 46.3832 150.537 46.4599C150.939 46.5365 151.321 46.6937 151.661 46.9222C152.001 47.1506 152.291 47.4454 152.514 47.7889C152.737 48.1324 152.888 48.5175 152.958 48.9209C153.018 49.2692 153.017 49.625 153.053 49.9767C153.128 50.7229 153.365 51.4421 153.513 52.1772C153.878 53.988 153.689 55.8598 154.05 57.6703C154.352 59.184 155.49 60.1717 154.788 61.828Z" fill="#A0616A"/>
<path d="M144.256 50.2212C144.971 50.2212 145.55 49.6421 145.55 48.9277C145.55 48.2134 144.971 47.6343 144.256 47.6343C143.542 47.6343 142.963 48.2134 142.963 48.9277C142.963 49.6421 143.542 50.2212 144.256 50.2212Z" fill="#FFDC29"/>
<path d="M3.81541 95.4146C5.9226 95.4146 7.63082 93.7064 7.63082 91.5992C7.63082 89.4919 5.9226 87.7837 3.81541 87.7837C1.70822 87.7837 0 89.4919 0 91.5992C0 93.7064 1.70822 95.4146 3.81541 95.4146Z" fill="#2F2E41"/>
<path d="M17.646 102.926L15.7242 101.058L11.8652 102.257L12.2359 106.725L20.1705 106.357L17.7329 103.044L17.646 102.926Z" fill="#FBBEBE"/>
<path d="M13.4429 102.888C16.8496 102.888 19.6114 100.126 19.6114 96.7189C19.6114 93.3121 16.8496 90.5503 13.4429 90.5503C10.0361 90.5503 7.27441 93.3121 7.27441 96.7189C7.27441 100.126 10.0361 102.888 13.4429 102.888Z" fill="#FBBEBE"/>
<path d="M51.7367 110.844C51.7367 110.844 59.3148 123.867 61.1183 125.822C61.976 126.784 62.8897 127.695 63.8548 128.55C63.8548 128.55 63.0068 131.362 61.6564 131.262C60.8868 131.215 60.132 131.029 59.4289 130.713C59.4289 130.713 58.8262 129.15 57.775 128.465C56.7237 127.78 48.1347 119.33 48.3355 116.629C48.5362 113.929 51.7367 110.844 51.7367 110.844Z" fill="#2F2E41"/>
<path d="M24.749 129.428C24.749 129.428 32.829 135.7 43.8099 129.807L44.7562 129.11C44.7562 129.11 43.1592 132.703 43.011 133.677C42.8392 134.806 38.6814 141.422 38.0029 141.739C37.3244 142.056 37.1749 142.349 37.1749 142.349L40.0543 145.518L41.1189 144.735C41.1189 144.735 45.27 138.853 46.4841 137.777C47.6983 136.701 53.483 125.606 53.483 125.606C53.483 125.606 55.6946 121.425 50.175 121.111C44.6554 120.796 42.1155 122.301 42.1155 122.301L32.3195 123.857L24.749 129.428Z" fill="#2F2E41"/>
<path d="M63.9489 127.933L68.0357 130.761C68.0357 130.761 73.2496 132.394 70.0379 133.482C66.8262 134.569 58.3627 134.962 58.1706 133.462C57.9786 131.962 58.5045 129.601 58.9267 129.73C59.3489 129.86 62.2795 130.621 63.9489 127.933Z" fill="#2F2E41"/>
<path d="M41.4804 143.763L42.2368 147.917C42.2368 147.917 44.3877 152.031 41.8052 150.754C39.2227 149.478 33.9021 144.63 34.6877 143.613C35.4734 142.597 37.2075 141.494 37.3836 141.826C37.5597 142.157 38.8631 144.375 41.4804 143.763Z" fill="#2F2E41"/>
<path d="M33.6883 125.221C33.6883 125.221 28.1958 131.633 24.8612 130.076C21.5265 128.518 7.88402 110.475 9.44176 107.14C10.9995 103.806 11.5218 104.516 11.5218 104.516L18.5659 105.167L16.5391 101.917C16.5391 101.917 17.4854 101.221 18.3872 102.198C19.2889 103.176 22.9093 105.618 24.1705 109.066C25.4317 112.514 29.1345 112.342 29.1345 112.342L33.6883 125.221Z" fill="white"/>
<path d="M55.8685 111.997L46.3474 122.104L37.8184 107.045L45.9266 97.2485L55.8685 111.997Z" fill="#3F3D56"/>
<path d="M55.1495 111.888L46.5502 120.77L38.7578 107.083L45.9042 98.0859L55.1495 111.888Z" fill="white"/>
<path d="M45.8813 121.718L46.3478 122.104L46.0486 122.689L32.7353 126.652L32.6094 126.196L33.2151 125.569L45.8813 121.718Z" fill="#B3B3B3"/>
<path d="M46.4659 122.017L32.6794 126.328L24.2754 110.448L37.8185 107.045L46.4659 122.017Z" fill="#D0CDE1"/>
<path d="M45.4276 119.863L44.836 120.298L38.2715 108.9L38.9499 108.583L45.4276 119.863Z" fill="#3F3D56"/>
<path d="M44.0705 120.497L38.2386 122.236L31.6182 110.514L37.3877 109.186L44.0705 120.497Z" fill="#3F3D56"/>
<path d="M27.6414 111.8L28.8488 111.459C28.8488 111.459 35.5826 110.697 35.6809 112.813C35.7792 114.929 27.945 113.947 27.945 113.947L26.9004 112.528L27.6414 111.8Z" fill="#FBBEBE"/>
<path d="M33.5474 121.313L35.228 120.623C35.228 120.623 40.3012 118.348 38.8459 116.866C37.3906 115.384 32.9022 117.958 32.9022 117.958L32.043 118.773L33.5474 121.313Z" fill="#FBBEBE"/>
<path d="M32.0492 118.038C32.0492 118.038 34.7857 120.766 34.163 121.406C33.5404 122.047 23.3296 130.473 20.7984 127.777C18.2673 125.081 5.93512 111.544 10.7338 110.383C15.5324 109.223 16.8003 111.937 16.8003 111.937L23.135 122.775L32.0492 118.038Z" fill="white"/>
<path d="M23.8558 109.753L28.3509 111.278L28.2775 114.523L23.5234 114.01L23.8558 109.753Z" fill="white"/>
<path opacity="0.2" d="M27.9068 119.719L23.0637 122.554L17.5303 114.043L22.8716 121.054L27.9068 119.719Z" fill="black"/>
<path d="M10.735 102.275C14.7907 102.275 18.0784 98.9867 18.0784 94.931C18.0784 90.8752 14.7907 87.5874 10.735 87.5874C6.67936 87.5874 3.3916 90.8752 3.3916 94.931C3.3916 98.9867 6.67936 102.275 10.735 102.275Z" fill="#2F2E41"/>
<path d="M50.4133 112.638L45.2715 105.116L47.4511 102.418L52.794 110.157L50.4133 112.638Z" fill="#FFDC29"/>
<path d="M50.2694 115.662L42.4414 104.282L42.8275 103.815L50.6189 115.223L50.2694 115.662Z" fill="#E6E6E6"/>
<path d="M49.2596 116.769L41.4316 105.389L41.8177 104.922L49.6091 116.33L49.2596 116.769Z" fill="#E6E6E6"/>
<path d="M48.4002 117.584L40.5723 106.204L40.9584 105.737L48.7497 117.145L48.4002 117.584Z" fill="#E6E6E6"/>
<path d="M13.9873 90.0283H16.259C17.4092 90.0283 18.5123 90.4852 19.3256 91.2986C20.1389 92.1119 20.5958 93.215 20.5958 94.3652H13.9873V90.0283Z" fill="#2F2E41"/>
<path d="M45.2798 87.2684L44.868 87.2378C44.852 87.4519 44.8406 87.6673 44.827 87.8822L42.9785 87.8203L44.9175 91.4539L47.0952 87.9581L45.2399 87.896C45.2532 87.6868 45.2643 87.4771 45.2798 87.2684Z" fill="#3F3D56"/>
<path d="M56.1211 57.6498L56.4494 57.9005C56.9419 57.2555 57.4563 56.6115 57.9783 55.9865L57.6613 55.7217C57.1354 56.3513 56.6172 57 56.1211 57.6498Z" fill="#3F3D56"/>
<path d="M59.2861 53.8633L59.5911 54.1418C60.139 53.5417 60.7079 52.9457 61.2818 52.3702L60.9894 52.0786C60.4112 52.6582 59.8381 53.2587 59.2861 53.8633Z" fill="#3F3D56"/>
<path d="M62.7686 50.3706L63.0479 50.675C63.6472 50.1247 64.2659 49.5811 64.8869 49.0594L64.6212 48.7432C63.9956 49.2687 63.3723 49.8164 62.7686 50.3706Z" fill="#3F3D56"/>
<path d="M53.3027 61.702L53.6518 61.9226C54.086 61.2358 54.5418 60.5488 55.0067 59.8805L54.6677 59.6445C54.1993 60.3178 53.7401 61.01 53.3027 61.702Z" fill="#3F3D56"/>
<path d="M66.543 47.1992L66.7945 47.5267C67.4398 47.0312 68.1037 46.5443 68.7678 46.0796L68.531 45.7412C67.8619 46.2094 67.1931 46.6999 66.543 47.1992Z" fill="#3F3D56"/>
<path d="M50.8516 65.989L51.2188 66.1778C51.5909 65.4542 51.9844 64.7292 52.3883 64.023L52.0297 63.8179C51.6228 64.5294 51.2264 65.2599 50.8516 65.989Z" fill="#3F3D56"/>
<path d="M46.8678 77.6152L46.4679 77.5122C46.2638 78.3047 46.0748 79.1128 45.9062 79.9143L46.3104 79.9994C46.4778 79.204 46.6654 78.4017 46.8678 77.6152Z" fill="#3F3D56"/>
<path d="M70.5811 44.3726L70.8027 44.7211C71.4873 44.2855 72.1911 43.8593 72.8948 43.4542L72.6887 43.0962C71.9798 43.5044 71.2707 43.9338 70.5811 44.3726Z" fill="#3F3D56"/>
<path d="M45.8592 82.4058L45.4516 82.3389C45.319 83.1452 45.2026 83.9668 45.1055 84.781L45.5157 84.8298C45.612 84.0219 45.7276 83.2063 45.8592 82.4058Z" fill="#3F3D56"/>
<path d="M48.79 70.4787L49.1726 70.6342C49.4789 69.8804 49.8065 69.123 50.1463 68.3829L49.771 68.2104C49.4286 68.9562 49.0985 69.7193 48.79 70.4787Z" fill="#3F3D56"/>
<path d="M47.1357 75.1377L47.5308 75.2583C47.769 74.4789 48.0278 73.6948 48.3002 72.9277L47.911 72.7896C47.6366 73.5623 47.3757 74.3524 47.1357 75.1377Z" fill="#3F3D56"/>
<path d="M98.5209 36.1398C99.3307 36.1118 100.155 36.1006 100.971 36.1083L100.974 35.6952C100.153 35.6876 99.3222 35.6987 98.5068 35.727L98.5209 36.1398Z" fill="#3F3D56"/>
<path d="M74.8506 41.9145L75.0406 42.2812C75.7619 41.9075 76.5002 41.5453 77.2353 41.2048L77.0617 40.8301C76.3211 41.1731 75.5772 41.538 74.8506 41.9145Z" fill="#3F3D56"/>
<path d="M108.294 36.6551C109.1 36.7691 109.913 36.9027 110.711 37.052L110.787 36.646C109.983 36.4956 109.164 36.361 108.352 36.2461L108.294 36.6551Z" fill="#3F3D56"/>
<path d="M113.108 37.556C113.899 37.7407 114.698 37.946 115.481 38.1661L115.592 37.7684C114.803 37.5467 113.999 37.34 113.202 37.1538L113.108 37.556Z" fill="#3F3D56"/>
<path d="M117.822 38.881C118.593 39.1355 119.37 39.411 120.13 39.7L120.277 39.3139C119.511 39.0227 118.729 38.7451 117.952 38.4888L117.822 38.881Z" fill="#3F3D56"/>
<path d="M103.419 36.1834C104.232 36.2261 105.054 36.2874 105.862 36.3654L105.902 35.9544C105.088 35.8757 104.26 35.8139 103.441 35.771L103.419 36.1834Z" fill="#3F3D56"/>
<path d="M93.5898 36.1139L93.6403 36.5239C94.4451 36.4248 95.2648 36.3423 96.0761 36.2785L96.0438 35.8667C95.2262 35.9309 94.4006 36.0141 93.5898 36.1139Z" fill="#3F3D56"/>
<path d="M83.9541 38.18L84.0763 38.5745C84.8525 38.3342 85.6445 38.1081 86.4307 37.9025L86.3262 37.5029C85.5342 37.71 84.7361 37.9378 83.9541 38.18Z" fill="#3F3D56"/>
<path d="M79.3174 39.8453L79.4742 40.2274C80.2251 39.9193 80.9922 39.6243 81.7541 39.3505L81.6146 38.9619C80.8468 39.2376 80.074 39.5349 79.3174 39.8453Z" fill="#3F3D56"/>
<path d="M88.7266 36.9321L88.8131 37.3361C89.6066 37.166 90.4156 37.0112 91.2179 36.8761L91.1493 36.4688C90.3411 36.6049 89.5259 36.7608 88.7266 36.9321Z" fill="#3F3D56"/>
<path d="M126.294 42.2539L123.985 38.8428L123.174 40.5134C122.977 40.4257 122.782 40.336 122.586 40.2511L122.422 40.6302C122.613 40.7132 122.803 40.8001 122.993 40.8851L122.186 42.5478L126.294 42.2539Z" fill="#3F3D56"/>
</g>
<defs>
<clipPath id="clip0">
<rect width="187" height="151" fill="white"/>
</clipPath>
</defs>
</svg>
