<svg width="220" height="120" viewBox="0 0 220 120" fill="none" xmlns="http://www.w3.org/2000/svg">
<g clip-path="url(#clip0)">
<path opacity="0.1" d="M217.668 111.336C216.814 113.442 215.763 115.463 214.529 117.372C213.95 118.282 213.315 119.155 212.627 119.986C212.621 119.994 212.614 120.002 212.606 120.009H0L0.0286956 119.986C0.22 119.837 1.34296 118.928 3.08957 117.372C4.34261 116.257 5.91513 114.807 7.68087 113.063C22.1224 98.8635 49.8635 65.2534 26.7597 34.4641C5.28191 5.84146 28.4068 0.647431 43.6614 0.0412064C49.5223 -0.188318 55.3693 0.767194 60.852 2.8505C67.8997 5.52783 80.7802 9.6318 97.5614 11.5136C98.1124 11.5748 98.6671 11.636 99.2296 11.6914C108.114 12.5957 117.059 12.7582 125.97 12.1772C126.232 12.1619 126.496 12.1428 126.762 12.1236C135.578 11.5048 144.327 10.1519 152.917 8.07895C153.474 7.94317 154.023 7.81504 154.57 7.68691C183.195 1.06624 209.583 23.6304 202.985 49.1301C200.546 58.562 201.166 68.6154 209.298 76.7488C222.613 90.0245 221.001 103.099 217.668 111.336Z" fill="#FFDC29"/>
<path d="M217.669 111.335C216.815 113.441 215.764 115.462 214.529 117.371C213.95 118.281 213.315 119.154 212.628 119.985H0.0292969C0.220601 119.836 1.34356 118.927 3.09017 117.371C4.34321 116.256 5.91573 114.806 7.68147 113.062L30.0889 108.434C30.3785 108.374 30.6733 108.344 30.969 108.344L54.8571 108.31H54.882L66.7142 108.295H66.7409L76.727 108.283H83.2639H89.9596L117.396 108.245H117.44H119.566H123.3H127.962H129.202L133.914 108.191H135.471L149.176 108.172H153.553H155.657L171.488 108.151H176.201L191.196 108.13L203.853 108.115C204.205 108.115 204.556 108.157 204.899 108.239L217.669 111.335Z" fill="#454B69"/>
<path opacity="0.4" d="M3.09017 117.371H214.529C213.95 118.281 213.315 119.154 212.628 119.985H0.0292969C0.216775 119.826 1.33973 118.918 3.09017 117.371Z" fill="black"/>
<path d="M140.267 57.8957L139.843 57.9779L120.643 61.665C115.067 62.7359 109.41 63.8126 103.745 63.4014C99.6418 63.1031 95.8081 61.8868 91.8653 60.8197C89.6366 60.2154 87.274 59.9744 86.5183 57.4807C85.4757 54.0384 87.1726 48.9419 87.5724 45.4537C87.955 42.0306 88.1808 38.5213 87.4997 35.1383C87.3484 34.3781 87.1491 33.6282 86.9029 32.8932C86.2199 30.868 85.1467 28.7625 85.7263 26.7066C86.1836 25.0754 87.5782 23.9107 88.8829 22.8322C91.4387 20.7285 94.0481 18.3706 95.062 15.2171C95.5594 13.6872 95.6531 12.0406 96.1888 10.5222C97.2046 7.63447 99.7566 5.47539 102.596 4.33179C105.435 3.18818 108.557 2.94531 111.619 2.94531C114.324 2.94546 117.025 3.12498 119.706 3.48269C122.629 3.86517 125.579 4.49434 128.148 5.94392C130.717 7.39351 132.883 9.76869 133.482 12.664C134.329 16.7584 131.976 21.1187 133.239 25.0945C133.874 27.1044 135.343 28.728 136.363 30.5677C137.194 32.1067 137.707 33.7971 137.872 35.5384C138.036 37.2796 137.848 39.0362 137.319 40.7034C136.099 44.4841 133.111 48.3089 134.641 51.9749C135.615 54.3061 138.102 55.5511 139.835 57.3984C139.989 57.5642 140.133 57.7299 140.267 57.8957Z" fill="#454B69"/>
<path opacity="0.1" d="M139.843 57.4135V57.9777L120.644 61.6647C115.068 62.7357 109.411 63.8123 103.746 63.4012C99.6428 63.1028 95.809 61.8866 91.8663 60.8195C89.6376 60.2151 87.275 59.9742 86.5193 57.4804C85.4767 54.0381 87.1736 48.9417 87.5734 45.4535C87.956 42.0303 93.8463 29.5329 93.1652 26.1499L128.365 27.6798C128.602 29.5482 137.906 38.9265 137.326 40.7184C136.105 44.4992 133.117 48.324 134.648 51.99C135.623 54.3212 138.11 55.5661 139.843 57.4135Z" fill="black"/>
<path d="M103.879 47.9508C104.087 49.1346 104.198 50.4369 103.594 51.4696C102.788 52.8542 101.032 53.2959 99.4615 53.6096L94.0094 54.6996C93.6382 54.7742 93.2442 54.8584 92.9668 55.1127C92.6396 55.4053 92.5287 55.8681 92.4809 56.3041C92.2609 58.2777 92.9591 60.2226 93.5962 62.1025C94.8836 65.91 95.9645 69.7979 97.5925 73.4716C99.2205 77.1452 101.455 80.6526 104.644 83.1081C107.833 85.5635 112.053 86.8716 115.958 85.9116C119.359 85.0759 122.148 82.6758 124.553 80.1305C126.537 78.0269 128.392 75.732 129.355 73.003C130.019 71.1289 130.235 69.1324 130.443 67.155C130.766 64.1232 131.089 61.0914 131.411 58.0597C131.562 56.6369 131.662 55.0362 130.738 53.9442C130.332 53.4642 129.781 53.1449 129.219 52.8484C127.126 51.7373 124.922 50.8194 122.975 49.4807C121.027 48.1421 119.3 46.2985 118.709 44.0113C118.355 42.6382 118.418 41.1428 117.815 39.8634C117.142 38.4291 115.711 37.4576 114.18 37.0311C112.65 36.6047 111.035 36.662 109.459 36.8399C107.883 37.0177 101.807 37.4729 101.155 39.2495C100.805 40.2057 102.257 42.2577 102.601 43.1986C103.168 44.7414 103.595 46.3318 103.879 47.9508Z" fill="#EFB7B9"/>
<path opacity="0.1" d="M103.879 47.9508C104.087 49.1346 104.198 50.4369 103.594 51.4696C102.788 52.8542 101.032 53.2959 99.4615 53.6096L94.0094 54.6996C93.6382 54.7742 93.2442 54.8584 92.9668 55.1127C92.6396 55.4053 92.5287 55.8681 92.4809 56.3041C92.2609 58.2777 92.9591 60.2226 93.5962 62.1025C94.8836 65.91 95.9645 69.7979 97.5925 73.4716C99.2205 77.1452 101.455 80.6526 104.644 83.1081C107.833 85.5635 112.053 86.8716 115.958 85.9116C119.359 85.0759 122.148 82.6758 124.553 80.1305C126.537 78.0269 128.392 75.732 129.355 73.003C130.019 71.1289 130.235 69.1324 130.443 67.155C130.766 64.1232 131.089 61.0914 131.411 58.0597C131.562 56.6369 131.662 55.0362 130.738 53.9442C130.332 53.4642 129.781 53.1449 129.219 52.8484C127.126 51.7373 124.922 50.8194 122.975 49.4807C121.027 48.1421 119.3 46.2985 118.709 44.0113C118.355 42.6382 118.418 41.1428 117.815 39.8634C117.142 38.4291 115.711 37.4576 114.18 37.0311C112.65 36.6047 111.035 36.662 109.459 36.8399C107.883 37.0177 101.807 37.4729 101.155 39.2495C100.805 40.2057 102.257 42.2577 102.601 43.1986C103.168 44.7414 103.595 46.3318 103.879 47.9508Z" fill="black"/>
<path d="M117 68.7464L120.197 61.9804C121.695 58.8097 123.225 55.4783 123.066 51.9767C123.036 51.2806 123.028 50.4105 123.64 50.0949C123.906 49.9864 124.196 49.9495 124.48 49.9878C127.845 50.1599 131.167 50.8315 134.334 51.9806C134.948 52.2024 135.578 52.4586 136.008 52.9482C136.439 53.4378 136.613 54.0956 136.76 54.7267C137.262 56.8605 137.628 59.0239 137.856 61.204C138.43 66.6007 138.145 72.0453 137.856 77.4592L137.007 93.9879C137.011 94.2224 136.964 94.455 136.867 94.6687C136.657 95.0512 136.182 95.1793 135.756 95.252C134.112 95.5331 132.433 95.4758 130.768 95.4126C119.06 94.969 107.291 94.2882 95.6601 95.7071C95.7124 93.9873 95.685 92.2661 95.5778 90.5437C95.1168 83.1065 93.1884 75.8509 91.2945 68.645C90.1907 64.4378 89.1213 59.8481 90.8985 55.8837C91.1599 55.2577 91.5355 54.6857 92.0062 54.197C92.7618 53.4569 93.793 53.0668 94.8145 52.7876C96.5767 52.3084 98.4018 52.102 100.227 52.1756L112.288 78.4269C112.839 79.6278 113.293 80.8919 113.842 82.0776C114.335 80.0295 113.742 77.6294 114.335 75.4091C114.974 73.1047 115.98 70.8997 117 68.7464Z" fill="white"/>
<path d="M115.739 86.8087C117.897 86.9444 119.994 85.8391 121.478 84.2767C122.963 82.7143 123.942 80.733 124.77 78.7308C125.961 75.8767 126.908 72.9268 127.6 69.9128C128.174 67.3502 128.581 64.6977 128.185 62.1007C127.638 58.515 125.608 55.2563 125.262 51.6457C125.203 51.0146 125.241 50.2765 125.748 49.8959C126.062 49.6607 126.475 49.6282 126.865 49.6052C130.473 49.391 134.437 49.4312 137.232 51.7203C138.083 52.4164 138.774 53.2865 139.606 54.0037C141.588 55.7248 144.389 56.6007 145.661 58.886C146.105 59.6815 146.317 60.5823 146.627 61.439C147.358 63.4661 148.622 65.2485 149.879 67.0021C148.66 72.1426 147.26 77.2869 146.042 82.4274C145.328 85.4432 144.609 88.4705 143.488 91.3582C142.753 93.2515 141.829 95.183 142.055 97.2101C142.145 98.0076 142.411 98.7706 142.642 99.5394C143.453 102.238 143.834 105.047 143.769 107.864L89.182 107.998C91.7972 104.25 92.5643 99.6522 92.2984 95.0912C92.1702 92.9053 91.6767 90.7061 90.5767 88.8148C88.8434 85.8506 85.794 83.9191 82.7887 82.2648C80.6843 81.1174 78.425 87.5736 76.1504 86.8335C76.5177 84.2365 76.686 74.2118 76.533 71.5976C76.4833 70.7408 76.4067 69.8611 76.6707 69.0426C76.8506 68.4823 77.1815 67.9813 77.4053 67.4362C78.3026 65.2542 77.4474 62.4641 78.8975 60.6071C79.9 59.3163 81.658 58.9491 83.0871 58.1535C84.5544 57.335 85.6888 56.0499 86.9667 54.9522C89.4742 52.8238 92.5381 51.4562 95.7974 51.0108C96.7481 52.51 97.326 54.2149 97.4827 55.983C97.5803 57.0941 97.5095 58.2205 97.6645 59.3258C97.8768 60.8232 98.4967 62.2288 99.1107 63.6134C101.668 69.3869 104.236 75.1776 107.476 80.5992C108.393 82.1291 109.39 83.659 110.717 84.8504C112.045 86.0418 113.956 86.8928 115.739 86.8087Z" fill="#FFDC29"/>
<path opacity="0.1" d="M115.739 86.8087C117.897 86.9444 119.994 85.8391 121.478 84.2767C122.963 82.7143 123.942 80.733 124.77 78.7308C125.961 75.8767 126.908 72.9268 127.6 69.9128C128.174 67.3502 128.581 64.6977 128.185 62.1007C127.638 58.515 125.608 55.2563 125.262 51.6457C125.203 51.0146 125.241 50.2765 125.748 49.8959C126.062 49.6607 126.475 49.6282 126.865 49.6052C130.473 49.391 134.437 49.4312 137.232 51.7203C138.083 52.4164 138.774 53.2865 139.606 54.0037C141.588 55.7248 144.389 56.6007 145.661 58.886C146.105 59.6815 146.317 60.5823 146.627 61.439C147.358 63.4661 148.622 65.2485 149.879 67.0021C148.66 72.1426 147.26 77.2869 146.042 82.4274C145.328 85.4432 144.609 88.4705 143.488 91.3582C142.753 93.2515 141.829 95.183 142.055 97.2101C142.145 98.0076 142.411 98.7706 142.642 99.5394C143.453 102.238 143.834 105.047 143.769 107.864L89.182 107.998C91.7972 104.25 92.5643 99.6522 92.2984 95.0912C92.1702 92.9053 91.6767 90.7061 90.5767 88.8148C88.8434 85.8506 85.794 83.9191 82.7887 82.2648C80.6843 81.1174 78.425 87.5736 76.1504 86.8335C76.5177 84.2365 76.686 74.2118 76.533 71.5976C76.4833 70.7408 76.4067 69.8611 76.6707 69.0426C76.8506 68.4823 77.1815 67.9813 77.4053 67.4362C78.3026 65.2542 77.4474 62.4641 78.8975 60.6071C79.9 59.3163 81.658 58.9491 83.0871 58.1535C84.5544 57.335 85.6888 56.0499 86.9667 54.9522C89.4742 52.8238 92.5381 51.4562 95.7974 51.0108C96.7481 52.51 97.326 54.2149 97.4827 55.983C97.5803 57.0941 97.5095 58.2205 97.6645 59.3258C97.8768 60.8232 98.4967 62.2288 99.1107 63.6134C101.668 69.3869 104.236 75.1776 107.476 80.5992C108.393 82.1291 109.39 83.659 110.717 84.8504C112.045 86.0418 113.956 86.8928 115.739 86.8087Z" fill="black"/>
<path d="M112.852 47.5168C121.908 47.5168 129.25 40.1775 129.25 31.1239C129.25 22.0703 121.908 14.731 112.852 14.731C103.795 14.731 96.4531 22.0703 96.4531 31.1239C96.4531 40.1775 103.795 47.5168 112.852 47.5168Z" fill="#EFB7B9"/>
<path d="M104.247 52.9689C104.696 48.7273 102.932 44.5774 100.935 40.8081C99.9787 39.0066 98.9533 37.2109 98.4731 35.2316C97.9929 33.2523 98.1307 31.011 99.3588 29.3835C100.403 27.999 102.06 27.2512 103.592 26.4385C107.918 24.1436 111.872 20.7702 113.774 16.2589C112.699 16.8441 112.978 18.5901 113.927 19.3608C114.876 20.1314 116.169 20.2806 117.336 20.6478C121.59 21.9865 124.142 26.2281 126.189 30.1906C126.524 30.837 126.865 31.5197 126.861 32.2483C126.857 32.9769 126.524 33.6233 126.176 34.2429C125.166 36.0405 123.93 37.7674 123.471 39.7773C122.945 42.0722 123.5 44.4856 124.221 46.7365C124.986 49.1308 126.002 51.5442 127.838 53.2615C129.675 54.9789 132.523 55.8318 134.783 54.7226C132.527 50.8462 130.191 46.5147 131.071 42.12C131.496 40.0164 132.638 38.104 133.124 36.0119C134.05 32.0207 132.508 27.9148 130.995 24.1054L126.472 12.7363C125.782 10.9979 124.996 9.1429 123.412 8.15802C122.34 7.49443 121.043 7.32231 119.788 7.20183C115.748 6.8423 111.562 6.96087 107.801 8.464C100.949 11.2006 96.6519 17.9475 93.2428 24.4917C92.2213 26.4519 91.2131 28.5344 91.2552 30.7452C91.2781 31.9576 91.6167 33.1375 91.8922 34.3194C93.0133 39.131 93.0745 44.1165 93.1319 49.0562C93.1759 52.8465 92.9788 56.4189 91.3202 59.8707C93.5929 60.322 96.8891 61.5402 99.1388 60.6491C102.072 59.4902 103.877 55.9197 104.247 52.9689Z" fill="#454B69"/>
<g opacity="0.1">
<path opacity="0.1" d="M93.1236 48.9763C93.1313 48.4371 93.1313 47.8927 93.1236 47.3432C93.0662 42.4035 93.005 37.4179 91.884 32.6064C91.6335 31.67 91.4381 30.7199 91.2986 29.7607C91.2592 30.0901 91.242 30.4216 91.2469 30.7533C91.2699 31.9657 91.6085 33.1457 91.884 34.3275C92.9993 39.1104 93.0681 44.0653 93.1236 48.9763Z" fill="black"/>
<path opacity="0.1" d="M133.126 36.0124C133.377 34.895 133.461 33.7465 133.375 32.6045C133.337 33.1725 133.254 33.7365 133.126 34.2912C132.64 36.3948 131.498 38.29 131.073 40.3994C130.89 41.3297 130.839 42.2812 130.92 43.2259C130.951 42.8549 131.002 42.4858 131.073 42.1205C131.498 40.0112 132.64 38.1083 133.126 36.0124Z" fill="black"/>
<path opacity="0.1" d="M126.712 31.3708C126.805 31.0992 126.856 30.8146 126.861 30.5275C126.861 29.7988 126.524 29.1161 126.19 28.4697C124.143 24.5073 121.598 20.2694 117.336 18.927C116.169 18.5598 114.878 18.4106 113.927 17.6399C113.682 17.4293 113.482 17.1719 113.338 16.8829C113.194 16.594 113.11 16.2792 113.089 15.957C111.015 19.7627 107.453 22.6733 103.593 24.7177C102.062 25.5304 100.404 26.2782 99.3593 27.6627C98.3779 28.9631 98.0928 30.6556 98.2631 32.2926C98.3596 31.242 98.7383 30.237 99.3593 29.3839C100.404 27.9993 102.06 27.2516 103.593 26.4388C107.453 24.3945 111.015 21.4838 113.089 17.6782C113.11 18.0003 113.194 18.3151 113.338 18.6041C113.482 18.8931 113.682 19.1504 113.927 19.3611C114.884 20.126 116.169 20.2809 117.336 20.6481C121.591 21.9868 124.143 26.2284 126.19 30.1909C126.397 30.5685 126.572 30.9633 126.712 31.3708Z" fill="black"/>
<path opacity="0.1" d="M127.841 51.5406C126.004 49.8194 124.992 47.4098 124.223 45.0155C123.762 43.6706 123.453 42.2778 123.305 40.8638C123.127 42.8278 123.615 44.8377 124.223 46.7367C124.988 49.131 126.004 51.5444 127.841 53.2617C129.677 54.979 132.526 55.832 134.785 54.7228C134.513 54.2581 134.244 53.7857 133.976 53.3095C131.877 53.9005 129.467 53.059 127.841 51.5406Z" fill="black"/>
<path opacity="0.1" d="M104.249 51.2481C103.879 54.1989 102.073 57.7693 99.1331 58.9359C97.0918 59.7448 94.1859 58.8154 91.9687 58.301C91.7779 58.8378 91.5595 59.3644 91.3145 59.8787C93.5872 60.33 96.8833 61.5482 99.1331 60.657C102.073 59.4905 103.879 55.9201 104.249 52.9693C104.325 52.231 104.339 51.4877 104.291 50.7471C104.279 50.9134 104.262 51.0817 104.249 51.2481Z" fill="black"/>
</g>
<path d="M127.427 98.6637C124.471 98.1952 121.472 97.2906 118.541 97.8987C116.842 98.2506 115.289 99.0959 113.877 100.117C114.654 100.739 115.56 101.293 116.054 102.158C116.36 102.756 116.59 103.39 116.739 104.045C117.049 105.193 117.361 106.363 117.408 107.556C117.456 108.75 117.217 109.993 116.505 110.955C120.232 111.322 123.844 110.404 127.479 109.507C127.894 109.434 128.29 109.274 128.64 109.038C129.214 108.587 129.382 107.784 129.386 107.051C129.386 105.743 129.019 104.468 128.646 103.213C128.202 101.708 127.873 100.159 127.427 98.6637Z" fill="white"/>
<path d="M147.384 66.4076C148.851 66.5988 149.99 67.7826 150.827 68.9988C153.179 72.3838 154.193 76.4877 155.321 80.4521C156.724 85.3822 158.374 90.2346 160.27 95.0091C160.679 96.1118 161.175 97.1798 161.755 98.2028C162.227 98.9926 162.801 99.7518 163.01 100.649C163.515 102.817 161.726 104.856 159.861 106.065C158.867 106.735 157.781 107.258 156.637 107.617C155.524 107.95 154.363 108.076 153.209 108.203L142.59 109.35C137.702 109.882 132.77 110.413 127.881 109.901C127.573 108.83 128.177 108.073 128.133 106.958C128.102 106.16 127.75 105.418 127.437 104.684C126.858 103.376 126.476 101.99 126.302 100.57C126.247 100.048 126.228 99.5128 126.029 99.0271C125.83 98.5413 125.403 98.1053 124.881 98.0709C127.75 97.7859 129.929 97.2447 132.799 96.9579C133.865 96.8508 134.972 96.7303 135.881 96.1642C137.008 95.4624 137.639 94.1964 138.14 92.9686C139.382 89.9279 140.181 86.5775 139.529 83.357C138.993 80.716 137.499 78.2567 137.507 75.5621C137.507 73.9576 138.054 72.4029 138.701 70.9342C139.386 69.3813 140.279 67.794 141.783 67.0061C143.286 66.2182 145.687 66.1781 147.384 66.4076Z" fill="#FFDC29"/>
<path opacity="0.08" d="M147.384 66.4076C148.851 66.5988 149.99 67.7826 150.827 68.9988C153.179 72.3838 154.193 76.4877 155.321 80.4521C156.724 85.3822 158.374 90.2346 160.27 95.0091C160.679 96.1118 161.175 97.1798 161.755 98.2028C162.227 98.9926 162.801 99.7518 163.01 100.649C163.515 102.817 161.726 104.856 159.861 106.065C158.867 106.735 157.781 107.258 156.637 107.617C155.524 107.95 154.363 108.076 153.209 108.203L142.59 109.35C137.702 109.882 132.77 110.413 127.881 109.901C127.573 108.83 128.177 108.073 128.133 106.958C128.102 106.16 127.75 105.418 127.437 104.684C126.858 103.376 126.476 101.99 126.302 100.57C126.247 100.048 126.228 99.5128 126.029 99.0271C125.83 98.5413 125.403 98.1053 124.881 98.0709C127.75 97.7859 129.929 97.2447 132.799 96.9579C133.865 96.8508 134.972 96.7303 135.881 96.1642C137.008 95.4624 137.639 94.1964 138.14 92.9686C139.382 89.9279 140.181 86.5775 139.529 83.357C138.993 80.716 137.499 78.2567 137.507 75.5621C137.507 73.9576 138.054 72.4029 138.701 70.9342C139.386 69.3813 140.279 67.794 141.783 67.0061C143.286 66.2182 145.687 66.1781 147.384 66.4076Z" fill="black"/>
<path d="M80.8848 63.9234C81.5793 62.2749 82.2852 60.5729 82.3043 58.7848C82.3254 56.8514 81.5391 55.0155 80.9384 53.1796C80.1956 50.9334 79.701 48.6126 79.4634 46.2587C79.4142 46.0332 79.4481 45.7975 79.5591 45.5951C79.7179 45.3713 80.024 45.3255 80.2937 45.2662C81.6175 44.964 82.6181 43.895 83.4445 42.8183C84.7266 41.1555 85.8091 39.3481 86.6699 37.4331C87.3031 36.0236 88.1601 34.3044 89.7059 34.291C89.0836 37.213 88.3122 40.1013 87.3949 42.9445C89.0114 42.5315 90.5476 41.931 92.1641 41.5179C92.4806 41.418 92.812 41.374 93.1436 41.3879C94.1116 41.4892 94.7046 42.7992 94.1422 43.5928C94.9323 44.5184 96.2465 44.767 97.2796 45.402C98.3126 46.0369 99.0549 47.6088 98.1366 48.4063C97.9568 48.5612 97.7292 48.6702 97.5991 48.8691C97.1552 49.5537 98.2418 50.3397 98.1519 51.1506C98.0792 51.8142 97.2279 52.124 96.5832 51.948C95.9385 51.7721 95.4354 51.2902 94.8615 50.9364C94.2876 50.5826 93.5377 50.3627 92.981 50.7298C92.8318 52.5294 92.6711 54.3634 91.8925 56.0023C91.6074 56.6009 91.242 57.1612 91.0125 57.7827C90.7929 58.4604 90.6567 59.1623 90.6069 59.8729L89.9125 66.2201C86.5991 66.8837 83.6281 65.8912 80.8848 63.9234Z" fill="#EFB7B9"/>
<path d="M80.077 69.6128L79.4667 65.4839C79.4084 65.1478 79.3758 64.8077 79.3691 64.4665C79.3691 63.5104 79.79 62.5982 80.1975 61.728C83.574 63.3038 87.2241 63.8642 90.9488 63.8661C91.4405 63.8661 92.001 63.8202 92.3071 63.4358C92.9403 64.1644 92.9594 65.3367 92.6897 66.2623C92.42 67.1879 91.9015 68.0217 91.5572 68.9243C91.3831 69.3814 91.2415 69.8805 90.9086 70.2324C90.3921 70.7889 89.5542 70.8845 88.7928 70.8807C87.9918 70.8756 87.1928 70.7995 86.4053 70.6531C84.366 70.2744 82.1163 69.2475 80.077 69.6128Z" fill="white"/>
<path d="M92.6699 69.4445C90.049 69.1462 87.4454 68.7254 84.8589 68.1823C83.5906 67.9165 82.3107 67.6201 81.0175 67.6717C80.1758 67.7061 79.2709 67.8744 78.5306 67.4575C79.2518 69.9111 79.2958 72.4966 78.433 74.9043C77.9222 76.3386 77.1436 77.6754 76.7687 79.1517C75.9881 82.2402 77.0594 85.6079 76.0838 88.641C75.9806 89.0373 75.7778 89.4007 75.4946 89.6966C75.1961 89.9701 74.7887 90.1116 74.5132 90.408C74.1076 90.844 74.0827 91.5 74.0808 92.0947L74.0636 97.3633C74.0521 100.718 74.0961 104.275 75.8676 107.116C77.8878 110.368 82.1405 112.052 85.8422 111.064C86.8265 110.812 87.7485 110.361 88.5511 109.738C89.8367 108.717 90.6554 107.241 91.457 105.803C92.4135 104.082 93.3701 102.322 93.6781 100.385C93.8961 99.0137 93.7737 97.6139 93.6168 96.235C92.7521 88.5855 90.8755 81.001 91.2791 73.3228C91.3395 71.9191 91.8245 70.5668 92.6699 69.4445Z" fill="#FFDC29"/>
<path d="M103.624 101.19C102.295 101.266 100.955 101.343 99.6317 101.19C98.6751 101.075 97.7416 100.84 96.7927 100.679C94.2014 100.261 91.5501 100.408 89.021 101.11C86.4919 101.813 84.1448 103.054 82.1407 104.749C81.4061 105.376 80.6638 106.338 81.0694 107.216C81.5056 108.16 82.839 108.134 83.8663 107.958C82.7574 108.487 81.778 109.253 80.9967 110.201C80.7098 110.551 80.4381 110.966 80.4936 111.419C80.6103 112.366 81.8958 112.538 82.8466 112.456C82.5367 112.788 82.7452 113.377 83.1393 113.603C83.5334 113.829 84.0232 113.783 84.4689 113.701C85.4543 113.52 86.4065 113.191 87.2925 112.723C87.1127 113.192 87.4245 113.741 87.8665 113.974C88.3084 114.207 88.8459 114.19 89.3414 114.11C91.6792 113.727 93.6304 112.102 95.9108 111.463C99.5571 110.444 103.372 112.069 107.161 112.184C108.347 112.22 109.564 112.1 110.645 111.61C111.971 111.008 113.04 109.878 114.441 109.476C115.996 109.032 117.781 109.543 119.204 108.776C120.239 108.22 119.305 103.93 119.041 103.104C118.557 101.593 118.071 100.591 116.459 100.438C112.378 100.038 107.735 100.953 103.624 101.19Z" fill="#EFB7B9"/>
<path d="M113.803 100.019C113.803 100.019 119.98 105.246 116.416 110.949L123.303 108.572V103.582C123.303 103.345 120.688 99.7823 120.688 99.7823L117.598 99.3062L113.803 100.019Z" fill="white"/>
<path d="M49.1244 99.6963H51.4411C52.7095 99.6963 53.926 100.2 54.8229 101.097C55.7198 101.993 56.2237 103.209 56.2237 104.477V111.574H44.3418V104.477C44.3418 103.849 44.4655 103.228 44.7059 102.648C44.9462 102.068 45.2985 101.541 45.7426 101.097C46.1867 100.653 46.7139 100.3 47.2942 100.06C47.8744 99.82 48.4963 99.6963 49.1244 99.6963Z" fill="#3F3D56"/>
<path opacity="0.1" d="M49.1244 99.6963H51.4411C52.7095 99.6963 53.926 100.2 54.8229 101.097C55.7198 101.993 56.2237 103.209 56.2237 104.477V111.574H44.3418V104.477C44.3418 103.849 44.4655 103.228 44.7059 102.648C44.9462 102.068 45.2985 101.541 45.7426 101.097C46.1867 100.653 46.7139 100.3 47.2942 100.06C47.8744 99.82 48.4963 99.6963 49.1244 99.6963Z" fill="black"/>
<path d="M49.8082 102.309C50.3333 102.309 50.759 101.883 50.759 101.358C50.759 100.833 50.3333 100.408 49.8082 100.408C49.2831 100.408 48.8574 100.833 48.8574 101.358C48.8574 101.883 49.2831 102.309 49.8082 102.309Z" fill="#3F3D56"/>
<path d="M49.8082 101.121C50.3333 101.121 50.759 100.696 50.759 100.171C50.759 99.6457 50.3333 99.2202 49.8082 99.2202C49.2831 99.2202 48.8574 99.6457 48.8574 100.171C48.8574 100.696 49.2831 101.121 49.8082 101.121Z" fill="#3F3D56"/>
<path d="M49.8082 99.9336C50.3333 99.9336 50.759 99.5081 50.759 98.9832C50.759 98.4583 50.3333 98.0327 49.8082 98.0327C49.2831 98.0327 48.8574 98.4583 48.8574 98.9832C48.8574 99.5081 49.2831 99.9336 49.8082 99.9336Z" fill="#3F3D56"/>
<path d="M49.8082 98.7457C50.3333 98.7457 50.759 98.3201 50.759 97.7952C50.759 97.2703 50.3333 96.8447 49.8082 96.8447C49.2831 96.8447 48.8574 97.2703 48.8574 97.7952C48.8574 98.3201 49.2831 98.7457 49.8082 98.7457Z" fill="#3F3D56"/>
<path d="M49.8082 97.5582C50.3333 97.5582 50.759 97.1326 50.759 96.6077C50.759 96.0828 50.3333 95.6572 49.8082 95.6572C49.2831 95.6572 48.8574 96.0828 48.8574 96.6077C48.8574 97.1326 49.2831 97.5582 49.8082 97.5582Z" fill="#3F3D56"/>
<path d="M49.8082 96.3706C50.3333 96.3706 50.759 95.9451 50.759 95.4202C50.759 94.8953 50.3333 94.4697 49.8082 94.4697C49.2831 94.4697 48.8574 94.8953 48.8574 95.4202C48.8574 95.9451 49.2831 96.3706 49.8082 96.3706Z" fill="#3F3D56"/>
<path d="M49.8082 95.1812C50.3333 95.1812 50.759 94.7557 50.759 94.2307C50.759 93.7058 50.3333 93.2803 49.8082 93.2803C49.2831 93.2803 48.8574 93.7058 48.8574 94.2307C48.8574 94.7557 49.2831 95.1812 49.8082 95.1812Z" fill="#3F3D56"/>
<path d="M51.2359 95.6572C51.761 95.6572 52.1867 95.2317 52.1867 94.7068C52.1867 94.1819 51.761 93.7563 51.2359 93.7563C50.7108 93.7563 50.2852 94.1819 50.2852 94.7068C50.2852 95.2317 50.7108 95.6572 51.2359 95.6572Z" fill="#3F3D56"/>
<path d="M52.1852 95.1812C52.7103 95.1812 53.1359 94.7557 53.1359 94.2307C53.1359 93.7058 52.7103 93.2803 52.1852 93.2803C51.6601 93.2803 51.2344 93.7058 51.2344 94.2307C51.2344 94.7557 51.6601 95.1812 52.1852 95.1812Z" fill="#3F3D56"/>
<path d="M53.1363 94.7071C53.6614 94.7071 54.0871 94.2815 54.0871 93.7566C54.0871 93.2317 53.6614 92.8062 53.1363 92.8062C52.6112 92.8062 52.1855 93.2317 52.1855 93.7566C52.1855 94.2815 52.6112 94.7071 53.1363 94.7071Z" fill="#3F3D56"/>
<path d="M49.8082 93.9937C50.3333 93.9937 50.759 93.5681 50.759 93.0432C50.759 92.5183 50.3333 92.0928 49.8082 92.0928C49.2831 92.0928 48.8574 92.5183 48.8574 93.0432C48.8574 93.5681 49.2831 93.9937 49.8082 93.9937Z" fill="#3F3D56"/>
<path d="M49.8082 92.8062C50.3333 92.8062 50.759 92.3807 50.759 91.8557C50.759 91.3308 50.3333 90.9053 49.8082 90.9053C49.2831 90.9053 48.8574 91.3308 48.8574 91.8557C48.8574 92.3807 49.2831 92.8062 49.8082 92.8062Z" fill="#3F3D56"/>
<path d="M49.8082 91.6182C50.3333 91.6182 50.759 91.1927 50.759 90.6677C50.759 90.1428 50.3333 89.7173 49.8082 89.7173C49.2831 89.7173 48.8574 90.1428 48.8574 90.6677C48.8574 91.1927 49.2831 91.6182 49.8082 91.6182Z" fill="#3F3D56"/>
<path d="M49.8082 90.4307C50.3333 90.4307 50.759 90.0052 50.759 89.4802C50.759 88.9553 50.3333 88.5298 49.8082 88.5298C49.2831 88.5298 48.8574 88.9553 48.8574 89.4802C48.8574 90.0052 49.2831 90.4307 49.8082 90.4307Z" fill="#3F3D56"/>
<path d="M53.7565 86.4146C53.5193 86.4491 53.282 86.4739 53.0448 86.4892C53.2654 86.2969 53.4701 86.0871 53.657 85.862C53.5253 85.4626 53.3316 85.0863 53.0831 84.747C52.8474 84.8794 52.5869 84.9614 52.3179 84.988C52.0826 85.0224 51.8453 85.0473 51.6081 85.0645C51.92 84.8101 52.2107 84.4277 52.5168 84.1083C51.831 83.4869 50.9525 83.1201 50.0283 83.0691C49.1041 83.0182 48.1905 83.2863 47.4406 83.8285C46.6906 84.3707 46.1498 85.1541 45.9088 86.0474C45.6678 86.9408 45.7412 87.8897 46.1168 88.7354C46.4923 89.5811 47.1472 90.272 47.9716 90.6925C48.7961 91.113 49.7401 91.2374 50.6454 91.045C51.5508 90.8526 52.3624 90.355 52.9445 89.6357C53.5266 88.9163 53.8436 88.0188 53.8426 87.0935C53.8426 86.8608 53.8221 86.6285 53.7813 86.3993L53.7565 86.4146Z" fill="#FFDC29"/>
<path d="M56.9263 91.1366C56.6838 91.2857 56.4101 91.3767 56.1266 91.4024C55.8913 91.4368 55.6541 91.4636 55.4169 91.4789C55.669 91.2528 55.9043 91.0086 56.1209 90.7483C55.5476 90.5989 54.9392 90.6686 54.4147 90.9438C53.8901 91.219 53.487 91.6798 53.2843 92.2363C53.0816 92.7927 53.0938 93.4047 53.3184 93.9527C53.5431 94.5007 53.9642 94.9451 54.4993 95.1993C55.0344 95.4534 55.645 95.4988 56.2119 95.3268C56.7787 95.1547 57.261 94.7775 57.5644 94.2689C57.8679 93.7602 57.9706 93.1568 57.8526 92.5764C57.7346 91.9961 57.4043 91.4806 56.9263 91.1308V91.1366Z" fill="#FFDC29"/>
<path d="M48.3824 95.6572C48.9075 95.6572 49.3332 95.2317 49.3332 94.7068C49.3332 94.1819 48.9075 93.7563 48.3824 93.7563C47.8573 93.7563 47.4316 94.1819 47.4316 94.7068C47.4316 95.2317 47.8573 95.6572 48.3824 95.6572Z" fill="#3F3D56"/>
<path d="M47.4312 95.1812C47.9564 95.1812 48.382 94.7557 48.382 94.2307C48.382 93.7058 47.9564 93.2803 47.4312 93.2803C46.9061 93.2803 46.4805 93.7058 46.4805 94.2307C46.4805 94.7557 46.9061 95.1812 47.4312 95.1812Z" fill="#3F3D56"/>
<path d="M46.482 94.7071C47.0071 94.7071 47.4328 94.2815 47.4328 93.7566C47.4328 93.2317 47.0071 92.8062 46.482 92.8062C45.9569 92.8062 45.5312 93.2317 45.5312 93.7566C45.5312 94.2815 45.9569 94.7071 46.482 94.7071Z" fill="#3F3D56"/>
<path d="M42.6908 91.1366C42.9333 91.2857 43.207 91.3767 43.4905 91.4024C43.7258 91.4368 43.963 91.4636 44.2002 91.4789C43.9476 91.2533 43.7123 91.0091 43.4962 90.7483C44.0695 90.5989 44.6778 90.6686 45.2024 90.9438C45.727 91.219 46.13 91.6798 46.3328 92.2363C46.5355 92.7927 46.5233 93.4047 46.2987 93.9527C46.074 94.5007 45.6529 94.9451 45.1178 95.1993C44.5827 95.4534 43.9721 95.4988 43.4052 95.3268C42.8383 95.1547 42.3561 94.7775 42.0527 94.2689C41.7492 93.7602 41.6465 93.1568 41.7645 92.5764C41.8825 91.9961 42.2128 91.4806 42.6908 91.1308V91.1366Z" fill="#FFDC29"/>
<path d="M49.1243 100.4H51.441C52.7094 100.4 53.9259 100.904 54.8228 101.8C55.7197 102.697 56.2236 103.913 56.2236 105.181V111.467C56.2236 111.682 56.1381 111.888 55.986 112.04C55.8339 112.192 55.6276 112.278 55.4124 112.278H45.1471C44.9319 112.278 44.7256 112.192 44.5735 112.04C44.4214 111.888 44.3359 111.682 44.3359 111.467V105.181C44.3359 104.553 44.4598 103.93 44.7005 103.35C44.9412 102.77 45.294 102.242 45.7388 101.798C46.1835 101.354 46.7114 101.002 47.2923 100.762C47.8732 100.522 48.4957 100.399 49.1243 100.4Z" fill="#3F3D56"/>
<g opacity="0.1">
<path opacity="0.1" d="M53.8217 86.6753C53.7255 86.7781 53.6233 86.8752 53.5156 86.966C53.6247 86.966 53.7318 86.9488 53.8408 86.9373C53.837 86.8493 53.8313 86.7614 53.8217 86.6753Z" fill="black"/>
<path opacity="0.1" d="M52.0879 85.5393C52.327 85.524 52.5623 85.4991 52.7995 85.4647C53.0124 85.4377 53.2204 85.3811 53.4175 85.2964C53.3207 85.1052 53.2094 84.9217 53.0846 84.7476C52.9656 84.82 52.8367 84.8747 52.702 84.9101C52.5144 85.1359 52.309 85.3463 52.0879 85.5393Z" fill="black"/>
<path opacity="0.1" d="M46.2438 87.5796C46.2424 86.8546 46.4366 86.1426 46.806 85.5186C47.1754 84.8946 47.7062 84.3818 48.3427 84.0341C48.9792 83.6864 49.6976 83.5168 50.4225 83.543C51.1473 83.5693 51.8516 83.7904 52.4612 84.1832L52.5224 84.1182C52.1246 83.7643 51.6606 83.4926 51.1572 83.3188C50.6538 83.145 50.121 83.0724 49.5895 83.1054C49.0579 83.1383 48.5382 83.2761 48.0601 83.5108C47.5821 83.7454 47.1552 84.0723 46.8041 84.4726C46.453 84.8729 46.1847 85.3387 46.0144 85.8432C45.8442 86.3476 45.7756 86.8808 45.8124 87.4119C45.8492 87.943 45.9908 88.4615 46.229 88.9377C46.4672 89.4138 46.7974 89.8381 47.2004 90.1862C46.5817 89.4586 46.2425 88.5345 46.2438 87.5796Z" fill="black"/>
</g>
<g opacity="0.1">
<path opacity="0.1" d="M55.418 91.9532C55.6552 91.9379 55.8924 91.913 56.1277 91.8786C56.4114 91.8522 56.685 91.7606 56.9274 91.6109C57.196 91.8086 57.4199 92.0606 57.5847 92.3506C57.7495 92.6405 57.8514 92.9619 57.8839 93.2938C57.8932 93.2106 57.8976 93.1269 57.8973 93.0432C57.8991 92.6718 57.8134 92.3052 57.6473 91.973C57.4811 91.6407 57.2391 91.3523 56.9408 91.1309C56.6983 91.28 56.4246 91.371 56.1411 91.3967L55.9498 91.4215C55.7865 91.6122 55.6087 91.79 55.418 91.9532Z" fill="black"/>
<path opacity="0.1" d="M55.5127 91.1422C55.5921 91.1431 55.6713 91.1489 55.7499 91.1595C55.8743 91.0275 55.9967 90.886 56.1211 90.7483C55.7694 90.6544 55.4008 90.6426 55.0438 90.714C54.6868 90.7853 54.3511 90.9379 54.0625 91.1597C53.774 91.3816 53.5404 91.6669 53.3799 91.9935C53.2193 92.3201 53.1361 92.6792 53.1367 93.0431C53.1367 93.1234 53.1367 93.2019 53.1482 93.2803C53.207 92.6943 53.4815 92.151 53.9185 91.7559C54.3554 91.3609 54.9236 91.1421 55.5127 91.1422Z" fill="black"/>
</g>
<g opacity="0.1">
<path opacity="0.1" d="M44.2 91.9532C43.9628 91.9379 43.7256 91.913 43.4903 91.8786C43.2066 91.8522 42.933 91.7606 42.6906 91.6109C42.422 91.8086 42.1981 92.0606 42.0333 92.3506C41.8685 92.6405 41.7666 92.9619 41.7341 93.2938C41.7248 93.2106 41.7204 93.1269 41.7207 93.0432C41.7189 92.6718 41.8046 92.3052 41.9707 91.973C42.1369 91.6407 42.3789 91.3523 42.6773 91.1309C42.9197 91.28 43.1934 91.371 43.4769 91.3967L43.6682 91.4215C43.8304 91.6132 44.0083 91.791 44.2 91.9532Z" fill="black"/>
<path opacity="0.1" d="M44.1044 91.1422C44.0245 91.1432 43.9446 91.149 43.8653 91.1595C43.7429 91.0275 43.6204 90.886 43.4961 90.7483C43.8478 90.6544 44.2164 90.6426 44.5734 90.714C44.9303 90.7853 45.2661 90.9379 45.5546 91.1597C45.8431 91.3816 46.0767 91.6669 46.2373 91.9935C46.3978 92.3201 46.481 92.6792 46.4804 93.0431C46.4804 93.1234 46.4804 93.2019 46.469 93.2803C46.4101 92.6943 46.1356 92.151 45.6987 91.7559C45.2618 91.3609 44.6936 91.1421 44.1044 91.1422Z" fill="black"/>
</g>
<path d="M37.6582 114.576H18.9677C18.7572 114.576 18.5552 114.493 18.4064 114.344C18.2575 114.195 18.1738 113.993 18.1738 113.783V104.94C18.1738 104.806 18.2077 104.674 18.2723 104.557C18.3369 104.44 18.4302 104.34 18.5434 104.269C18.6566 104.197 18.7862 104.156 18.9199 104.147C19.0536 104.139 19.1872 104.165 19.3083 104.223C24.6782 106.77 30.4632 107.644 37.2909 104.263C37.4119 104.203 37.5461 104.175 37.6809 104.182C37.8157 104.188 37.9466 104.229 38.0614 104.3C38.1762 104.371 38.271 104.47 38.337 104.587C38.403 104.705 38.438 104.837 38.4387 104.972V113.769C38.4405 113.874 38.4217 113.977 38.3834 114.074C38.3452 114.171 38.2882 114.259 38.2157 114.334C38.1432 114.409 38.0567 114.469 37.961 114.511C37.8653 114.552 37.7624 114.575 37.6582 114.576Z" fill="#FFDC29"/>
<path opacity="0.1" d="M37.6582 114.576H18.9677C18.7572 114.576 18.5552 114.493 18.4064 114.344C18.2575 114.195 18.1738 113.993 18.1738 113.783V104.94C18.1738 104.806 18.2077 104.674 18.2723 104.557C18.3369 104.44 18.4302 104.34 18.5434 104.269C18.6566 104.197 18.7862 104.156 18.9199 104.147C19.0536 104.139 19.1872 104.165 19.3083 104.223C24.6782 106.77 30.4632 107.644 37.2909 104.263C37.4119 104.203 37.5461 104.175 37.6809 104.182C37.8157 104.188 37.9466 104.229 38.0614 104.3C38.1762 104.371 38.271 104.47 38.337 104.587C38.403 104.705 38.438 104.837 38.4387 104.972V113.769C38.4405 113.874 38.4217 113.977 38.3834 114.074C38.3452 114.171 38.2882 114.259 38.2157 114.334C38.1432 114.409 38.0567 114.469 37.961 114.511C37.8653 114.552 37.7624 114.575 37.6582 114.576Z" fill="black"/>
<path d="M28.1839 107.854C28.7945 107.854 29.2896 107.206 29.2896 106.407C29.2896 105.607 28.7945 104.959 28.1839 104.959C27.5732 104.959 27.0781 105.607 27.0781 106.407C27.0781 107.206 27.5732 107.854 28.1839 107.854Z" fill="#3F3D56"/>
<path d="M28.1839 106.085C28.7945 106.085 29.2896 105.437 29.2896 104.638C29.2896 103.838 28.7945 103.19 28.1839 103.19C27.5732 103.19 27.0781 103.838 27.0781 104.638C27.0781 105.437 27.5732 106.085 28.1839 106.085Z" fill="#3F3D56"/>
<path d="M28.1839 104.315C28.7945 104.315 29.2896 103.667 29.2896 102.867C29.2896 102.068 28.7945 101.419 28.1839 101.419C27.5732 101.419 27.0781 102.068 27.0781 102.867C27.0781 103.667 27.5732 104.315 28.1839 104.315Z" fill="#3F3D56"/>
<path d="M28.1839 102.546C28.7945 102.546 29.2896 101.898 29.2896 101.098C29.2896 100.299 28.7945 99.6504 28.1839 99.6504C27.5732 99.6504 27.0781 100.299 27.0781 101.098C27.0781 101.898 27.5732 102.546 28.1839 102.546Z" fill="#3F3D56"/>
<path d="M28.1839 100.775C28.7945 100.775 29.2896 100.127 29.2896 99.3271C29.2896 98.5275 28.7945 97.8794 28.1839 97.8794C27.5732 97.8794 27.0781 98.5275 27.0781 99.3271C27.0781 100.127 27.5732 100.775 28.1839 100.775Z" fill="#3F3D56"/>
<path d="M28.1839 99.0038C28.7945 99.0038 29.2896 98.3556 29.2896 97.5561C29.2896 96.7566 28.7945 96.1084 28.1839 96.1084C27.5732 96.1084 27.0781 96.7566 27.0781 97.5561C27.0781 98.3556 27.5732 99.0038 28.1839 99.0038Z" fill="#3F3D56"/>
<path d="M28.1839 97.2352C28.7945 97.2352 29.2896 96.587 29.2896 95.7875C29.2896 94.988 28.7945 94.3398 28.1839 94.3398C27.5732 94.3398 27.0781 94.988 27.0781 95.7875C27.0781 96.587 27.5732 97.2352 28.1839 97.2352Z" fill="#3F3D56"/>
<path d="M32.3306 83.6741C32.4807 83.4811 32.6181 83.2786 32.7419 83.0678L29.8341 82.5898L32.9791 82.6127C33.2826 81.9555 33.4481 81.2432 33.4655 80.5196C33.483 79.796 33.3519 79.0765 33.0805 78.4055L28.8623 80.5932L32.7534 77.7247C32.389 77.0948 31.8988 76.5467 31.3133 76.1144C30.7278 75.6822 30.0595 75.3752 29.3501 75.2124C28.6407 75.0496 27.9054 75.0347 27.1899 75.1684C26.4745 75.3022 25.7942 75.5817 25.1916 75.9898C24.589 76.3978 24.0768 76.9255 23.6871 77.54C23.2974 78.1545 23.0385 78.8427 22.9265 79.5616C22.8144 80.2806 22.8517 81.0149 23.0359 81.7188C23.2202 82.4227 23.5475 83.0811 23.9974 83.653C23.761 83.9518 23.5583 84.2756 23.3929 84.6188L27.1654 86.6L23.148 85.2422C22.8664 86.0768 22.7971 86.9684 22.9464 87.8364C23.0957 88.7045 23.4589 89.5217 24.0031 90.2144C23.3881 90.9961 23.0055 91.9349 22.8991 92.9237C22.7927 93.9125 22.9668 94.9112 23.4014 95.8058C23.8361 96.7003 24.5137 97.4545 25.3569 97.9822C26.2002 98.5099 27.1749 98.7897 28.1697 98.7897C29.1646 98.7897 30.1393 98.5099 30.9825 97.9822C31.8258 97.4545 32.5034 96.7003 32.9381 95.8058C33.3727 94.9112 33.5468 93.9125 33.4404 92.9237C33.334 91.9349 32.9514 90.9961 32.3363 90.2144C33.0711 89.2804 33.4706 88.1267 33.4706 86.9385C33.4706 85.7503 33.0711 84.5966 32.3363 83.6626L32.3306 83.6741Z" fill="#FFDC29"/>
<path opacity="0.1" d="M22.8594 86.9501C22.8576 88.1387 23.2574 89.293 23.9938 90.2261C23.3788 91.0077 22.9962 91.9466 22.8898 92.9354C22.7834 93.9241 22.9574 94.9229 23.3921 95.8174C23.8267 96.712 24.5044 97.4662 25.3476 97.9939C26.1909 98.5216 27.1656 98.8014 28.1604 98.8014C29.1552 98.8014 30.13 98.5216 30.9732 97.9939C31.8164 97.4662 32.4941 96.712 32.9288 95.8174C33.3634 94.9229 33.5375 93.9241 33.4311 92.9354C33.3246 91.9466 32.9421 91.0077 32.327 90.2261C33.0368 89.3253 22.8594 86.3554 22.8594 86.9501Z" fill="black"/>
<path d="M37.6582 115.045H18.9677C18.7572 115.045 18.5552 114.961 18.4064 114.812C18.2575 114.664 18.1738 114.462 18.1738 114.251V104.94C18.1738 104.806 18.2077 104.674 18.2723 104.557C18.3369 104.44 18.4302 104.34 18.5434 104.269C18.6566 104.197 18.7862 104.156 18.9199 104.147C19.0536 104.139 19.1872 104.165 19.3083 104.223C24.6782 106.77 28.9366 109.74 37.2909 104.263C37.7864 103.938 38.4387 104.381 38.4387 104.972V114.247C38.4397 114.456 38.3584 114.657 38.2123 114.806C38.0662 114.956 37.8671 115.041 37.6582 115.045Z" fill="#FFDC29"/>
<path d="M176.351 112.412L148.777 116.059L147.397 116.24L133.916 109.042V107.357L176.045 102.764L176.351 112.412Z" fill="#9C9CA1"/>
<path d="M141.729 109.807L171.601 106.286L171.295 111.8L148.026 113.505L141.729 109.807Z" fill="#939498"/>
<path opacity="0.4" d="M148.775 114.248V116.057L147.395 116.248L133.912 109.042V107.357L146.781 114.242C146.781 114.242 148.468 114.401 148.775 114.248Z" fill="black"/>
<path d="M154.068 85.533L147.878 114.228C147.815 114.516 147.823 114.814 147.9 115.097C147.977 115.381 148.121 115.642 148.321 115.858C148.52 116.074 148.768 116.24 149.045 116.34C149.321 116.44 149.618 116.472 149.909 116.433L189.075 111.251C189.416 111.206 189.738 111.066 190.003 110.846C190.268 110.627 190.467 110.338 190.575 110.011L199.025 84.5385C199.118 84.2559 199.141 83.9548 199.093 83.6612C199.044 83.3676 198.924 83.0903 198.744 82.8532C198.564 82.616 198.329 82.4262 198.059 82.3C197.79 82.1739 197.493 82.1151 197.196 82.1289L155.775 84.0949C155.372 84.1139 154.986 84.2651 154.678 84.525C154.369 84.785 154.155 85.1392 154.068 85.533Z" fill="#3F3D56"/>
<path d="M175.59 96.1196C175.686 95.2057 175.288 94.4149 174.701 94.3532C174.113 94.2915 173.559 94.9823 173.463 95.8961C173.367 96.81 173.765 97.6008 174.353 97.6625C174.94 97.7242 175.494 97.0334 175.59 96.1196Z" fill="white"/>
</g>
<defs>
<clipPath id="clip0">
<rect width="220" height="120" fill="white"/>
</clipPath>
</defs>
</svg>
